<svg xmlns="http://www.w3.org/2000/svg" width="165.391" height="54.681" viewBox="0 0 165.391 54.681">
  <g id="Logo" transform="translate(-1065.609 -13)">
    <g id="Group_8828" data-name="Group 8828" transform="translate(-96 0.341)">
      <path id="Path_1" data-name="Path 1" d="M526.581,1063.7l-20.161-20.161a6.277,6.277,0,0,0-9.9,1.337h0a47.06,47.06,0,0,0,0,46.531h0a6.329,6.329,0,0,0,9.942,1.382l20.116-20.208A6.277,6.277,0,0,0,526.581,1063.7Zm-.834,7.157-19.217,21.063a4.9,4.9,0,0,1-7.761-.687,45.691,45.691,0,0,1-2.07-45.117,4.9,4.9,0,0,1,7.676-1.394l21.065,19.217a4.9,4.9,0,0,1,.318,6.919Z" transform="translate(671.879 -1028.143)" fill="#f5504c"/>
      <path id="Path_2" data-name="Path 2" d="M524.821,1060.233l-20.848-20.848a6.494,6.494,0,0,0-10.234,1.38h0a48.669,48.669,0,0,0,0,48.119h0a6.494,6.494,0,0,0,10.234,1.382l20.848-20.85A6.49,6.49,0,0,0,524.821,1060.233Zm-.863,7.4-19.871,21.784a5.064,5.064,0,0,1-8.025-.712,47.245,47.245,0,0,1-2.132-46.654,5.066,5.066,0,0,1,7.927-1.443l21.781,19.871a5.066,5.066,0,0,1,.328,7.155Z" transform="translate(674.232 -1024.825)" fill="#f5504c"/>
      <path id="Path_3" data-name="Path 3" d="M527.593,1102.785a3.051,3.051,0,0,0-.8-.987,3.861,3.861,0,0,0-.959-.569,5.759,5.759,0,0,0-1.866-.407,9.791,9.791,0,0,0-1.727.064c-.559.07-1.085.186-1.629.3a9.771,9.771,0,0,0-1.6.5,8.147,8.147,0,0,0-1.492.791,7.248,7.248,0,0,0-2.281,2.446c-.062.109-.119.213-.177.33l.405-8.078-2.959.294,1.955,7.7-.512-.1c-1.006-.2-2.011-.4-3.1-.554-.273-.038-.567-.064-.872-.081a8.39,8.39,0,0,0-.866,0,7.458,7.458,0,0,0-1.78.271,4.635,4.635,0,0,0-1.738.889,3.506,3.506,0,0,0-.693.787,3.154,3.154,0,0,0-.4.97,3.292,3.292,0,0,0,.158,1.932,3.98,3.98,0,0,0,1,1.471,4.2,4.2,0,0,0,1.435.878,4.072,4.072,0,0,0,1.582.239,4.214,4.214,0,0,1-2.315-1.727,3.112,3.112,0,0,1-.463-1.218,1.981,1.981,0,0,1,.141-1.109,1.6,1.6,0,0,1,.676-.706,3.071,3.071,0,0,1,1.066-.328,6.293,6.293,0,0,1,1.279-.013c.213.017.448.049.674.081a6.433,6.433,0,0,1,.652.139c.93.213,1.919.516,2.923.772.3.083.606.16.913.237a9.676,9.676,0,0,0-.077,1.567,8.739,8.739,0,0,0,.166,1.552,11.1,11.1,0,0,1,.467-2.985c.527.126,1.066.243,1.6.352s1.049.2,1.584.273,1.079.143,1.631.181a12.942,12.942,0,0,0,3.458-.177,8.3,8.3,0,0,0,1.772-.586,6.36,6.36,0,0,0,1.633-1.079,4.64,4.64,0,0,0,1.241-1.78,3.412,3.412,0,0,0,.213-1.239A3.016,3.016,0,0,0,527.593,1102.785Zm-2.3,1.279a.854.854,0,0,1-.092.264,2.1,2.1,0,0,1-.578.676,4.814,4.814,0,0,1-2.132.893,11.054,11.054,0,0,1-2.689.077,29.1,29.1,0,0,1-2.9-.348c-.262-.043-.527-.09-.791-.139a6.289,6.289,0,0,1,2.132-1.759,7.936,7.936,0,0,1,2.676-.772,10.084,10.084,0,0,1,1.433-.057,7.871,7.871,0,0,1,1.354.13,3.811,3.811,0,0,1,1.1.373.944.944,0,0,1,.471.484.427.427,0,0,1,.011.188Z" transform="translate(660.826 -1071.793)" fill="#f5504c"/>
      <path id="Path_4" data-name="Path 4" d="M534.667,1163.583l-.493.853-.247.426-.121.214a.3.3,0,0,0-.034.04.338.338,0,0,0-.034.032.326.326,0,0,1-.328.038.24.24,0,0,1-.111-.1,1.258,1.258,0,0,1-.092-.25l-.614-1.87L527.672,1148l-2.772,1.066,6.309,14.436.787,1.8a2.058,2.058,0,0,0,.367.614,1.492,1.492,0,0,0,2.185,0c.043-.051.087-.1.124-.156s.066-.111.1-.168l.1-.226.213-.448.411-.9.823-1.793,3.29-7.157-3.949,6.823Z" transform="translate(644.709 -1111.778)" fill="#f5504c"/>
      <path id="Path_5" data-name="Path 5" d="M535.061,1168.473l.411-.9.823-1.793,2.431-5.285-4.791,8.409a.465.465,0,0,1-.834-.055l-6.247-15.375a1.541,1.541,0,0,0-1.974-.853h0l6.309,14.436.787,1.8a2.061,2.061,0,0,0,.367.614,1.492,1.492,0,0,0,2.185,0c.043-.051.087-.1.124-.156s.066-.111.1-.169l.1-.226Z" transform="translate(644.727 -1115.337)" fill="#f5504c"/>
      <path id="Path_6" data-name="Path 6" d="M530.788,1117.481a3.018,3.018,0,0,0-.324-1.3,3.051,3.051,0,0,0-.8-.987,3.853,3.853,0,0,0-.959-.569,5.766,5.766,0,0,0-1.866-.407,9.8,9.8,0,0,0-1.727.064c-.559.07-1.085.186-1.629.3a9.777,9.777,0,0,0-1.6.5,8.151,8.151,0,0,0-1.492.791,7.327,7.327,0,0,0-1.938,1.9c.456.379,1.326-.315,1.326-.315,3.625-2.734,10.172-2.717,9.243.8-.966,3.646-9.044,2.985-14.46,1.441s-7.4.744-6.113,3.279a3.889,3.889,0,0,0,3.013,2.267,4.191,4.191,0,0,1-2.226-1.706,3.11,3.11,0,0,1-.463-1.217,1.98,1.98,0,0,1,.141-1.109,1.6,1.6,0,0,1,.676-.706,3.072,3.072,0,0,1,1.066-.328,6.276,6.276,0,0,1,1.279-.013c.213.017.448.049.674.081a6.444,6.444,0,0,1,.653.139c.93.213,1.919.516,2.923.772.3.083.606.16.913.237a9.684,9.684,0,0,0-.077,1.567,8.769,8.769,0,0,0,.166,1.552,11.1,11.1,0,0,1,.467-2.985c.527.126,1.066.243,1.6.352s1.049.2,1.584.273,1.079.143,1.631.181a12.942,12.942,0,0,0,3.458-.177,8.31,8.31,0,0,0,1.772-.586,6.366,6.366,0,0,0,1.633-1.079,4.642,4.642,0,0,0,1.241-1.781A3.411,3.411,0,0,0,530.788,1117.481Z" transform="translate(657.955 -1085.184)" fill="#f5504c"/>
      <path id="Path_7" data-name="Path 7" d="M435.659,67.82l.405-8.11-1,7.991Z" transform="translate(740.217 -34.323)" fill="#f5504c"/>
      <path id="Path_8" data-name="Path 8" d="M555.364,1123.86a6.291,6.291,0,0,1,2.132-1.759c.139-.068.277-.134.426-.194l-.64-1.377c-.179.1-.354.213-.524.324a7.248,7.248,0,0,0-2.281,2.446c-.062.109-.119.213-.177.33v.032h.026c.328.064.678.132,1.043.2h0Z" transform="translate(621.578 -1090.165)" fill="#f5504c" opacity="0.5"/>
      <path id="Path_9" data-name="Path 9" d="M550.149,1148a9.36,9.36,0,0,0-.079,1.089l.388.036s.019-.094.049-.226l.019-.085c.017-.07.036-.145.055-.213v-.013c.013-.053.028-.109.043-.164s.043-.156.06-.213a.356.356,0,0,1,.017-.064Z" transform="translate(624.906 -1111.778)" fill="#f5504c" opacity="0.5"/>
      <path id="Path_10" data-name="Path 10" d="M550.307,1127.6v.013l.1-2-1.1-.021-.092.015.488,1.919.595.117Z" transform="translate(625.574 -1094.146)" fill="#f5504c" opacity="0.5"/>
    </g>
    <text id="Talbaatkom" transform="translate(1113 46)" fill="#f5504c" font-size="20" font-family="SegoeUIBlack, Segoe UI"><tspan x="0" y="0">Talbaatkom</tspan></text>
  </g>
</svg>
