<svg xmlns="http://www.w3.org/2000/svg" xmlns:xlink="http://www.w3.org/1999/xlink" width="16" height="16" viewBox="0 0 16 16">
  <defs>
    <clipPath id="clip-path">
      <rect id="Rectangle_18866" data-name="Rectangle 18866" width="16" height="16" fill="#43494b" stroke="#707070" stroke-width="1"/>
    </clipPath>
  </defs>
  <g id="Mask_Group_182" data-name="Mask Group 182" clip-path="url(#clip-path)">
    <g id="customer-service" transform="translate(0.983)">
      <path id="Path_6909" data-name="Path 6909" d="M4.4,8.792l3.131.814a1.2,1.2,0,0,0,.59,0l3.3-.824a1.176,1.176,0,0,0,.891-1.141V4.037A4.037,4.037,0,0,0,8.275,0H7.553A4.037,4.037,0,0,0,3.516,4.037V7.654A1.176,1.176,0,0,0,4.4,8.792Z" transform="translate(-0.811)" fill="#fd9727"/>
      <path id="Path_6910" data-name="Path 6910" d="M11.055,0h.722a4.075,4.075,0,0,1,.535.035,4.037,4.037,0,0,0-3.5,4V7.654a1.176,1.176,0,0,0,.88,1.138l2.549.663-.619.154a1.2,1.2,0,0,1-.59,0L7.9,8.792a1.176,1.176,0,0,1-.88-1.138V4.037A4.037,4.037,0,0,1,11.055,0Z" transform="translate(-4.312)" fill="#ff6d3a"/>
      <g id="Group_9535" data-name="Group 9535" transform="translate(2.264 4.465)">
        <path id="Path_6911" data-name="Path 6911" d="M4.1,6.557H3.247V4.465H4.1a.456.456,0,0,1,.456.456V6.1A.456.456,0,0,1,4.1,6.557Z" transform="translate(4.946 -4.465)" fill="#3d6687"/>
        <path id="Path_6912" data-name="Path 6912" d="M11.9,6.557h.857V4.465H11.9a.456.456,0,0,0-.456.456V6.1A.456.456,0,0,0,11.9,6.557Z" transform="translate(-11.44 -4.465)" fill="#3d6687"/>
      </g>
      <path id="Path_6913" data-name="Path 6913" d="M6.066,10.206a.642.642,0,0,0,.515-.629V8.131H9.419V9.577a.642.642,0,0,0,.515.629l.346.069V12.6H5.72V10.275Z" transform="translate(-0.983)" fill="#fed9a8"/>
      <path id="Path_6914" data-name="Path 6914" d="M3.111,10.985,5.958,10.1a.256.256,0,0,1,.252.058L8,11.853l1.791-1.7a.256.256,0,0,1,.252-.058l2.846.887a2.966,2.966,0,0,1,2.128,2.845v1.9a.273.273,0,0,1-.273.273H1.256a.273.273,0,0,1-.273-.273v-1.9A2.966,2.966,0,0,1,3.111,10.985Z" transform="translate(-0.983)" fill="#ff4c4c"/>
      <path id="Path_6915" data-name="Path 6915" d="M11.584,10.985,14.43,10.1a.256.256,0,0,1,.252.058l.335.317-1.641.512a2.966,2.966,0,0,0-2.128,2.845V16H9.729a.273.273,0,0,1-.273-.273v-1.9A2.966,2.966,0,0,1,11.584,10.985Z" transform="translate(-9.456)" fill="#ef2929"/>
      <path id="Path_6916" data-name="Path 6916" d="M8,9.333H8A3.537,3.537,0,0,0,11.537,5.8V4.8A3.537,3.537,0,0,0,8,1.265H8A3.537,3.537,0,0,0,4.463,4.8V5.8A3.537,3.537,0,0,0,8,9.333Z" transform="translate(-0.983)" fill="#fed9a8"/>
      <path id="Path_6917" data-name="Path 6917" d="M8.9,1.725V5.8a3.538,3.538,0,0,0,2.641,3.423,3.543,3.543,0,0,1-.9.115h0A3.537,3.537,0,0,1,7.1,5.8V4.8A3.536,3.536,0,0,1,8.9,1.725Z" transform="translate(-3.624)" fill="#f4c892"/>
      <g id="Group_9536" data-name="Group 9536" transform="translate(3.788 10.086)">
        <path id="Path_6918" data-name="Path 6918" d="M6.562,10.156l-1.791,1.7,1.1.376a.706.706,0,0,0,.758-.2L8,10.468,6.814,10.1A.256.256,0,0,0,6.562,10.156Z" transform="translate(-1.543 -10.086)" fill="#d4145a"/>
        <path id="Path_6919" data-name="Path 6919" d="M9.438,10.156l1.791,1.7-1,.341a.869.869,0,0,1-.934-.25L8,10.468l1.186-.37A.256.256,0,0,1,9.438,10.156Z" transform="translate(-8 -10.086)" fill="#d4145a"/>
      </g>
      <path id="Path_6920" data-name="Path 6920" d="M4.067,14.6H5.887a.183.183,0,0,0,.183-.183v-.806a.183.183,0,0,0-.183-.183H4.067a.183.183,0,0,0-.183.183v.806A.183.183,0,0,0,4.067,14.6Z" transform="translate(5.063)" fill="#eda558"/>
      <path id="Path_6921" data-name="Path 6921" d="M3.516,4.782A2.5,2.5,0,0,0,5.564,3.257s3.689,2.953,6.747,1.525V4.037A4.037,4.037,0,0,0,8.275,0H7.553A4.037,4.037,0,0,0,3.516,4.037Z" transform="translate(-0.811)" fill="#fd9727"/>
      <path id="Path_6922" data-name="Path 6922" d="M11.055,0h.722a4.075,4.075,0,0,1,.535.035,4.038,4.038,0,0,0-3.491,3.7,2.608,2.608,0,0,1-1.8,1.045V4.037A4.037,4.037,0,0,1,11.055,0Z" transform="translate(-4.312)" fill="#ff6d3a"/>
      <g id="Group_9537" data-name="Group 9537" transform="translate(1.579 13.307)">
        <path id="Path_6923" data-name="Path 6923" d="M13.2,13.307a.242.242,0,0,1,.242.242V16h-.483V13.549A.242.242,0,0,1,13.2,13.307Z" transform="translate(-12.955 -13.307)" fill="#d4145a"/>
        <path id="Path_6924" data-name="Path 6924" d="M2.8,13.307a.242.242,0,0,1,.242.242V16H2.562V13.549A.242.242,0,0,1,2.8,13.307Z" transform="translate(7.831 -13.307)" fill="#d4145a"/>
      </g>
      <path id="Path_6925" data-name="Path 6925" d="M8.839,6.557V7a.776.776,0,0,0,.646.767l2.432.417a.241.241,0,1,1-.082.476L9.4,8.24A1.258,1.258,0,0,1,8.357,7V6.557Z" transform="translate(-5.458)" fill="#3d6687"/>
      <path id="Path_6926" data-name="Path 6926" d="M9.42,8.893A.467.467,0,0,0,9.5,7.965L8.71,7.83a.467.467,0,1,0-.158.921l.788.135A.472.472,0,0,0,9.42,8.893Z" transform="translate(-3.033)" fill="#d4145a"/>
    </g>
  </g>
</svg>
