<svg xmlns="http://www.w3.org/2000/svg" width="24" height="24" viewBox="0 0 24 24">
  <g id="vuesax_bold_direct-left" data-name="vuesax/bold/direct-left" transform="translate(-364 -252)">
    <path id="Vector" d="M12.483,15.014l-1.74-3.48a3.453,3.453,0,0,1,0-3.07l1.74-3.48A3.431,3.431,0,0,0,7.813.414l-1.54.82a1.081,1.081,0,0,0-.48.51l-5.7,12.64a1.076,1.076,0,0,0,.48,1.39l7.24,3.81A3.432,3.432,0,0,0,12.483,15.014Z" transform="translate(372.807 254.006)" fill="#363537"/>
    <path id="Vector-2" data-name="Vector" d="M5.358,9.8l3.73-8.28A1.074,1.074,0,0,0,7.607.13L1.838,3.16a3.433,3.433,0,0,0,0,6.08l2.04,1.07A1.07,1.07,0,0,0,5.358,9.8Z" transform="translate(366.332 257.8)" fill="#363537"/>
    <path id="Vector-3" data-name="Vector" d="M0,0H24V24H0Z" transform="translate(364 252)" fill="none" opacity="0"/>
    <path id="Vector-4" data-name="Vector" d="M0,0H24V24H0Z" transform="translate(388 276) rotate(180)" fill="none" opacity="0"/>
  </g>
</svg>
