<svg id="calendar" xmlns="http://www.w3.org/2000/svg" width="16.005" height="16.005" viewBox="0 0 16.005 16.005">
  <path id="Vector" d="M0,0H16V16H0Z" fill="none" opacity="0"/>
  <path id="Vector-2" data-name="Vector" d="M9.144,1.54V.5a.5.5,0,0,0-1,0v1H3.809V.5a.5.5,0,0,0-1,0V1.54A2.833,2.833,0,0,0,0,4.375a.335.335,0,0,0,.333.353H11.618a.331.331,0,0,0,.333-.353A2.833,2.833,0,0,0,9.144,1.54Z" transform="translate(2.026 0.834)" fill="#292d32"/>
  <path id="Vector-3" data-name="Vector" d="M11.337,0H.667A.669.669,0,0,0,0,.667V4.775A2.991,2.991,0,0,0,3.334,8.109H8.669A2.991,2.991,0,0,0,12,4.775V.667A.669.669,0,0,0,11.337,0Zm-7.2,5.582a1.051,1.051,0,0,1-.1.08.5.5,0,0,1-.12.06.424.424,0,0,1-.12.04.9.9,0,0,1-.133.013.664.664,0,0,1-.253-.053.688.688,0,0,1-.22-.14.676.676,0,0,1,0-.947.688.688,0,0,1,.22-.14.638.638,0,0,1,.387-.04.424.424,0,0,1,.12.04.5.5,0,0,1,.12.06l.1.08a.676.676,0,0,1,0,.947Zm0-2.334a.676.676,0,0,1-.947,0,.676.676,0,0,1,0-.947.666.666,0,0,1,.727-.14.622.622,0,0,1,.22.14.676.676,0,0,1,0,.947ZM6.475,5.582a.67.67,0,0,1-.947-.947.67.67,0,0,1,.947.947Zm0-2.334-.1.08a.5.5,0,0,1-.12.06.424.424,0,0,1-.12.04A.9.9,0,0,1,6,3.441a.66.66,0,0,1-.667-.667A.7.7,0,0,1,5.528,2.3a.622.622,0,0,1,.22-.14.666.666,0,0,1,.727.14.676.676,0,0,1,0,.947ZM8.809,5.582a.67.67,0,0,1-.947-.947.67.67,0,0,1,.947.947Zm0-2.334-.1.08a.5.5,0,0,1-.12.06.424.424,0,0,1-.12.04,1,1,0,0,1-.133.013.66.66,0,0,1-.667-.667A.7.7,0,0,1,7.862,2.3a.688.688,0,0,1,.22-.14.638.638,0,0,1,.387-.04.424.424,0,0,1,.12.04.5.5,0,0,1,.12.06l.1.08a.676.676,0,0,1,0,.947Z" transform="translate(2.001 6.562)" fill="#292d32"/>
</svg>
