<svg xmlns="http://www.w3.org/2000/svg" width="32.682" height="32.682" viewBox="0 0 32.682 32.682">
  <g id="Group_8868" data-name="Group 8868" transform="translate(-344.659 -23.659)">
    <g id="vuesax_bold_bag-tick-2" data-name="vuesax/bold/bag-tick-2" transform="translate(-83.341 -164.341)">
      <g id="bag-tick-2" transform="translate(428 188)">
        <path id="Vector" d="M25.052,9.984A7.025,7.025,0,0,0,20.46,8.091V7a6.868,6.868,0,0,0-2.385-5.177A7.409,7.409,0,0,0,12.469.032,7.485,7.485,0,0,0,5.909,7.26v.832A7.025,7.025,0,0,0,1.317,9.984,6.121,6.121,0,0,0,.08,15.032L1.123,23.02c.313,2.8,1.491,5.664,7.9,5.664h8.319c6.411,0,7.588-2.868,7.9-5.65l1.044-8.016A6.1,6.1,0,0,0,25.052,9.984ZM12.678,2.025A5.323,5.323,0,0,1,16.688,3.3a4.9,4.9,0,0,1,1.7,3.7v1H7.981V7.26A5.466,5.466,0,0,1,12.678,2.025Zm.507,21.754a5.552,5.552,0,0,1-5.65-5.435,5.552,5.552,0,0,1,5.65-5.435,5.552,5.552,0,0,1,5.65,5.435A5.552,5.552,0,0,1,13.184,23.78Z" transform="translate(3.156 1.998)" fill="#707070"/>
        <path id="Vector-2" data-name="Vector" d="M1.738,3.468a.742.742,0,0,1-.53-.22l-.99-.99A.75.75,0,0,1,1.278,1.2l.48.48L3.358.2a.75.75,0,0,1,1.02,1.1l-2.13,1.97A.782.782,0,0,1,1.738,3.468Z" transform="translate(14.034 18.742)" fill="#707070"/>
        <path id="Vector-3" data-name="Vector" d="M0,0H32.682V32.682H0Z" transform="translate(32.682 32.682) rotate(180)" fill="none" opacity="0"/>
      </g>
    </g>
  </g>
</svg>
