<svg xmlns="http://www.w3.org/2000/svg" xmlns:xlink="http://www.w3.org/1999/xlink" width="24" height="24" viewBox="0 0 24 24">
  <defs>
    <clipPath id="clip-path">
      <rect id="Rectangle_195" data-name="Rectangle 195" width="24" height="24" transform="translate(52 1146)" fill="#ededf4" stroke="#707070" stroke-width="1"/>
    </clipPath>
  </defs>
  <g id="Mask_Group_35" data-name="Mask Group 35" transform="translate(-52 -1146)" clip-path="url(#clip-path)">
    <path id="icons8_halal_food" d="M13.043,4.174a2.578,2.578,0,0,0-1.13.215,1.556,1.556,0,0,0-.7.678,2.883,2.883,0,0,0-.255,1.373C5.407,7.4,2.224,12.345,2.092,20.348H1.043v1.043h24V20.348H23.995c-.132-8-3.315-12.95-8.863-13.909a2.883,2.883,0,0,0-.255-1.373,1.556,1.556,0,0,0-.7-.678A2.578,2.578,0,0,0,13.043,4.174Zm0,1.043a1.617,1.617,0,0,1,.68.113.421.421,0,0,1,.226.216,2.26,2.26,0,0,1,.119.761c-.335-.028-.675-.047-1.025-.047s-.69.019-1.025.047a2.26,2.26,0,0,1,.119-.761.421.421,0,0,1,.226-.216A1.617,1.617,0,0,1,13.043,5.217Zm0,4.44,1.3,1.3h1.831v1.831l1.3,1.3-1.3,1.3v1.831H14.343l-1.3,1.3-1.3-1.3H9.913V15.386l-1.3-1.3,1.3-1.3V10.957h1.831Z" transform="translate(50.956 1145.217)" fill="#ededf4"/>
  </g>
</svg>
