<svg xmlns="http://www.w3.org/2000/svg" xmlns:xlink="http://www.w3.org/1999/xlink" width="24" height="24" viewBox="0 0 24 24">
  <defs>
    <clipPath id="clip-path">
      <rect id="Rectangle_18800" data-name="Rectangle 18800" width="24" height="24" fill="#363537" stroke="#707070" stroke-width="1"/>
    </clipPath>
  </defs>
  <g id="Mask_Group_168" data-name="Mask Group 168" clip-path="url(#clip-path)">
    <g id="chat">
      <g id="Group_9398" data-name="Group 9398">
        <g id="Group_9397" data-name="Group 9397">
          <path id="Path_6841" data-name="Path 6841" d="M15.516,0H7.078A7.12,7.12,0,0,0,0,7.078a7.083,7.083,0,0,0,6.1,6.963,3.115,3.115,0,0,0,.98.068v2.109a.7.7,0,0,0,1.093.585l4.042-2.694h3.3a7.08,7.08,0,0,0,7.078-7.031A7.12,7.12,0,0,0,15.516,0ZM7.078,8.484A1.406,1.406,0,1,1,8.484,7.078,1.408,1.408,0,0,1,7.078,8.484Zm4.219,0A1.406,1.406,0,1,1,12.7,7.078,1.408,1.408,0,0,1,11.3,8.484Zm4.219,0a1.406,1.406,0,1,1,1.406-1.406A1.408,1.408,0,0,1,15.516,8.484Z" fill="#363537"/>
        </g>
      </g>
      <g id="Group_9400" data-name="Group 9400" transform="translate(1.406 10.786)">
        <g id="Group_9399" data-name="Group 9399">
          <path id="Path_6842" data-name="Path 6842" d="M23.13,10.786a8.51,8.51,0,0,1-7.614,4.73H12.639L8.951,17.974a2.109,2.109,0,0,1-3.279-1.755V15.4a8.516,8.516,0,0,1-4.194-2,7.026,7.026,0,0,0-.072.713,7.08,7.08,0,0,0,7.078,7.031h3.3l4.042,2.741a.7.7,0,0,0,1.093-.585V21.141a3.115,3.115,0,0,0,.98-.068A7.083,7.083,0,0,0,24,14.109,6.958,6.958,0,0,0,23.13,10.786Z" transform="translate(-1.406 -10.786)" fill="#363537"/>
        </g>
      </g>
    </g>
  </g>
</svg>
