<svg xmlns="http://www.w3.org/2000/svg" xmlns:xlink="http://www.w3.org/1999/xlink" width="16" height="16" viewBox="0 0 16 16">
  <defs>
    <clipPath id="clip-path">
      <rect id="Rectangle_18205" data-name="Rectangle 18205" width="16" height="16" transform="translate(663 1131)" fill="#6cd4ff" stroke="#707070" stroke-width="1"/>
    </clipPath>
  </defs>
  <g id="Mask_Group_13" data-name="Mask Group 13" transform="translate(-663 -1131)" clip-path="url(#clip-path)">
    <path id="icons8_time_2" d="M7.619.762a.762.762,0,0,0,0,1.524h3.048a.762.762,0,0,0,0-1.524Zm6.853,1.68a.763.763,0,0,0-.43,1.342l1.085.92a.762.762,0,1,0,.985-1.164l-1.085-.92A.76.76,0,0,0,14.472,2.442Zm-5.329.606A6.857,6.857,0,1,0,16,9.9,6.866,6.866,0,0,0,9.143,3.048Zm0,2.286A.762.762,0,0,1,9.9,6.1V9.9a.762.762,0,1,1-1.524,0V6.1A.762.762,0,0,1,9.143,5.333Z" transform="translate(661.667 1130.238)" fill="#6cd4ff"/>
  </g>
</svg>
