<svg xmlns="http://www.w3.org/2000/svg" xmlns:xlink="http://www.w3.org/1999/xlink" width="48" height="48" viewBox="0 0 48 48">
  <defs>
    <clipPath id="clip-path">
      <rect id="Rectangle_18708" data-name="Rectangle 18708" width="48" height="48" transform="translate(791 1209)" fill="#4ee143" stroke="#707070" stroke-width="1"/>
    </clipPath>
  </defs>
  <g id="Mask_Group_25" data-name="Mask Group 25" transform="translate(-791 -1209)" clip-path="url(#clip-path)">
    <path id="icons8_time" d="M21.913,2.087v3.13H24V6.363a21.913,21.913,0,1,0,4.174,0V5.217h2.087V2.087ZM41.986,5.37,39.893,7.463l4.816,4.816L46.8,10.186ZM15.652,16.7A1.04,1.04,0,0,1,16.39,17l9.163,9.163A2.061,2.061,0,0,1,28.1,28.708l1.859,1.859a1.043,1.043,0,1,1-1.475,1.475l-1.859-1.859a2.061,2.061,0,0,1-2.543-2.543l-9.163-9.163a1.043,1.043,0,0,1,.738-1.781Z" transform="translate(788.912 1206.913)" fill="#4ee143"/>
  </g>
</svg>
