<svg xmlns="http://www.w3.org/2000/svg" xmlns:xlink="http://www.w3.org/1999/xlink" width="16" height="16" viewBox="0 0 16 16">
  <defs>
    <clipPath id="clip-path">
      <rect id="Rectangle_18867" data-name="Rectangle 18867" width="16" height="16" fill="#fff" stroke="#707070" stroke-width="1"/>
    </clipPath>
  </defs>
  <g id="Mask_Group_183" data-name="Mask Group 183" clip-path="url(#clip-path)">
    <g id="delivery-man_1_" data-name="delivery-man (1)" transform="translate(0.146 0.576)">
      <g id="Group_9539" data-name="Group 9539" transform="translate(11.606 6.598)">
        <path id="Path_6927" data-name="Path 6927" d="M17.734,10.738H21.6v1.345a.605.605,0,0,1-.6.6H19.609l-.83.419-1.044-.419Z" transform="translate(-17.734 -10.738)" fill="#ffe07d" fill-rule="evenodd"/>
      </g>
      <g id="Group_9540" data-name="Group 9540" transform="translate(7.001 8.547)">
        <path id="Path_6928" data-name="Path 6928" d="M15.3,13.716h1.875v.862a.377.377,0,0,1-.376.376H10.7c0-.542,0-.818.415-.818h.826a1.161,1.161,0,0,0,1.051-.419Z" transform="translate(-10.698 -13.716)" fill="#6f6571" fill-rule="evenodd"/>
      </g>
      <g id="Group_9541" data-name="Group 9541" transform="translate(4.477 9.785)">
        <path id="Path_6929" data-name="Path 6929" d="M10.1,15.608H15.47a3.305,3.305,0,0,1,.35,2.467c-.365-1.243-4.075-.747-4.456.688H7.27c-.155-.351-.3-.7-.429-1.047H8C10.329,16.835,9.579,17.227,10.1,15.608Z" transform="translate(-6.841 -15.608)" fill="#ffe07d" fill-rule="evenodd"/>
      </g>
      <g id="Group_9542" data-name="Group 9542" transform="translate(7.268 3.237)">
        <path id="Path_6930" data-name="Path 6930" d="M11.243,8.781a8.759,8.759,0,0,0,.31,1.19l1.18.462,1.316-.462C14,7.481,13.073,6.287,12.282,5.9a1.921,1.921,0,0,0-.577-.3s-.384.615-.4.615a3.3,3.3,0,0,0-.194,1.305Z" transform="translate(-11.105 -5.602)" fill="#eceaec" fill-rule="evenodd"/>
      </g>
      <g id="Group_9543" data-name="Group 9543" transform="translate(6.435 7.606)">
        <path id="Path_6931" data-name="Path 6931" d="M13.61,12.278h-2.5c-.575.063-1.282.5-1.282,1.856v1.421h1.3v-1.1c0-.542,0-.818.415-.818h.826a1.161,1.161,0,0,0,1.051-.419A1.541,1.541,0,0,0,13.61,12.278Z" transform="translate(-9.832 -12.278)" fill="#ff8086" fill-rule="evenodd"/>
      </g>
      <g id="Group_9544" data-name="Group 9544" transform="translate(8.053 3.536)">
        <path id="Path_6932" data-name="Path 6932" d="M14.464,10.129c-.046-2.49-.977-3.684-1.768-4.07a1.6,1.6,0,0,1-.391.2c.7.53,1.4,1.715,1.444,3.869Z" transform="translate(-12.305 -6.058)" fill="#dad8db" fill-rule="evenodd"/>
      </g>
      <g id="Group_9545" data-name="Group 9545" transform="translate(8.765 7.606)">
        <path id="Path_6933" data-name="Path 6933" d="M14.84,12.278h-.716a1.54,1.54,0,0,1-.183.941,1.075,1.075,0,0,1-.549.419h.213a1.161,1.161,0,0,0,1.051-.419A1.541,1.541,0,0,0,14.84,12.278Z" transform="translate(-13.393 -12.278)" fill="#f76672" fill-rule="evenodd"/>
      </g>
      <g id="Group_9546" data-name="Group 9546" transform="translate(11.606 4.647)">
        <path id="Path_6934" data-name="Path 6934" d="M18.338,7.757H21a.605.605,0,0,1,.6.6v1H17.734v-1a.605.605,0,0,1,.6-.6Z" transform="translate(-17.734 -7.757)" fill="#ffe07d" fill-rule="evenodd"/>
      </g>
      <g id="Group_9547" data-name="Group 9547" transform="translate(11.606 5.949)">
        <path id="Path_6935" data-name="Path 6935" d="M17.734,9.746H21.6v.95H17.734Z" transform="translate(-17.734 -9.746)" fill="#ff8086" fill-rule="evenodd"/>
      </g>
      <g id="Group_9548" data-name="Group 9548" transform="translate(14.066 4.647)">
        <path id="Path_6936" data-name="Path 6936" d="M22.1,9.059H22.9v-.7a.605.605,0,0,0-.6-.6h-.808a.605.605,0,0,1,.6.6Z" transform="translate(-21.492 -7.757)" fill="#ffc269" fill-rule="evenodd"/>
      </g>
      <g id="Group_9549" data-name="Group 9549" transform="translate(14.669 5.949)">
        <path id="Path_6937" data-name="Path 6937" d="M22.414,10.7h.808v-.95h-.808v.95Z" transform="translate(-22.414 -9.746)" fill="#f76672" fill-rule="evenodd"/>
      </g>
      <g id="Group_9550" data-name="Group 9550" transform="translate(14.066 6.898)">
        <path id="Path_6938" data-name="Path 6938" d="M22.1,11.2v1.044a.605.605,0,0,1-.6.6H22.3a.6.6,0,0,0,.6-.6V11.2H22.1Z" transform="translate(-21.492 -11.197)" fill="#ffc269" fill-rule="evenodd"/>
      </g>
      <g id="Group_9551" data-name="Group 9551" transform="translate(8.999 10.628)">
        <path id="Path_6939" data-name="Path 6939" d="M13.751,19.208a2.276,2.276,0,0,1,4.456-.688,2.335,2.335,0,0,1,.1.614c0,.084-.055.073-.133.073Z" transform="translate(-13.751 -16.895)" fill="#ff8086" fill-rule="evenodd"/>
      </g>
      <g id="Group_9552" data-name="Group 9552" transform="translate(9.572 12.94)">
        <path id="Path_6940" data-name="Path 6940" d="M14.626,20.428h3.468a1.735,1.735,0,0,1-3.468,0Z" transform="translate(-14.626 -20.428)" fill="#6f6571" fill-rule="evenodd"/>
      </g>
      <g id="Group_9553" data-name="Group 9553" transform="translate(0.726 12.57)">
        <path id="Path_6941" data-name="Path 6941" d="M1.149,19.863l2.984.687a1.531,1.531,0,1,1-2.984-.687Z" transform="translate(-1.11 -19.863)" fill="#6f6571" fill-rule="evenodd"/>
      </g>
      <g id="Group_9554" data-name="Group 9554" transform="translate(0.23 10.831)">
        <path id="Path_6942" data-name="Path 6942" d="M.664,18.108a2.083,2.083,0,0,1,1.919-.893,2.116,2.116,0,0,1,1.877,2.1,2.083,2.083,0,0,1-.046.412c-.009.038-.034.023-.076.013l-.467-.107L.887,18.945l-.223-.051-.312-.072a2.066,2.066,0,0,1,.312-.713Z" transform="translate(-0.352 -17.205)" fill="#eceaec" fill-rule="evenodd"/>
      </g>
      <g id="Group_9555" data-name="Group 9555" transform="translate(2.459 6.424)">
        <path id="Path_6943" data-name="Path 6943" d="M3.757,14.885l1.205-4.171.543-.243.607.243a7.019,7.019,0,0,0-.037,5.226c.129.35.275.7.429,1.047H5.637Z" transform="translate(-3.757 -10.472)" fill="#ff8086" fill-rule="evenodd"/>
      </g>
      <g id="Group_9556" data-name="Group 9556" transform="translate(6.099 1.69)">
        <path id="Path_6944" data-name="Path 6944" d="M9.412,3.539l1.414-.3c.143.013.554.358.554.574l-.3,1.53a1.381,1.381,0,0,1-.4.058A1.367,1.367,0,0,1,9.412,3.539Z" transform="translate(-9.319 -3.238)" fill="#ffece4" fill-rule="evenodd"/>
      </g>
      <g id="Group_9557" data-name="Group 9557" transform="translate(5.735 0.23)">
        <path id="Path_6945" data-name="Path 6945" d="M8.763,2.769a1.722,1.722,0,1,1,3.444,0,1.843,1.843,0,0,1-.734,1.545,1.642,1.642,0,0,1-.586.258V3.041c0-.216-.11-.259-.253-.272H8.763Z" transform="translate(-8.763 -1.008)" fill="#ff8086" fill-rule="evenodd"/>
      </g>
      <g id="Group_9558" data-name="Group 9558" transform="translate(6.556 0.23)">
        <path id="Path_6946" data-name="Path 6946" d="M10.017,1.268a1.68,1.68,0,0,1,.9-.26A1.741,1.741,0,0,1,12.64,2.769a1.843,1.843,0,0,1-.734,1.545,1.6,1.6,0,0,1-.4.2,2,2,0,0,0,.539-1.423,1.821,1.821,0,0,0-1.8-1.841,1.662,1.662,0,0,0-.229.015Z" transform="translate(-10.017 -1.008)" fill="#f76672" fill-rule="evenodd"/>
      </g>
      <g id="Group_9559" data-name="Group 9559" transform="translate(5.629 10.884)">
        <path id="Path_6947" data-name="Path 6947" d="M9.407,17.286h1.3v.821c0,.176-.1.189-.237.189H8.6c-.037-.823.461-1.01.8-1.01Z" transform="translate(-8.601 -17.286)" fill="#6f6571" fill-rule="evenodd"/>
      </g>
      <g id="Group_9560" data-name="Group 9560" transform="translate(3.679 6.667)">
        <path id="Path_6948" data-name="Path 6948" d="M6.72,16.069a7.019,7.019,0,0,1,.037-5.226H6.143a7.015,7.015,0,0,0-.037,5.226c.128.35.274.7.429,1.047h.613c-.154-.351-.3-.7-.429-1.047Z" transform="translate(-5.621 -10.843)" fill="#f76672" fill-rule="evenodd"/>
      </g>
      <g id="Group_9561" data-name="Group 9561" transform="translate(1.89 10.831)">
        <path id="Path_6949" data-name="Path 6949" d="M5.336,19.314l-1.877-2.1a2.051,2.051,0,0,0-.571.023l1.8,2.016a2.076,2.076,0,0,1-.036.356l.091.021.467.107c.042.01.067.025.076-.013a2.076,2.076,0,0,0,.046-.412Z" transform="translate(-2.888 -17.205)" fill="#dad8db" fill-rule="evenodd"/>
      </g>
      <g id="Group_9562" data-name="Group 9562" transform="translate(7.738 9.785)">
        <path id="Path_6950" data-name="Path 6950" d="M17.191,15.608H11.823v.473h4.411a.653.653,0,0,1,.67.469,2.179,2.179,0,0,1,.178.69,2.307,2.307,0,0,1,.459.835A3.305,3.305,0,0,0,17.191,15.608Z" transform="translate(-11.823 -15.608)" fill="#ffc269" fill-rule="evenodd"/>
      </g>
      <g id="Group_9563" data-name="Group 9563" transform="translate(10.778 10.628)">
        <path id="Path_6951" data-name="Path 6951" d="M18.686,17.684a2.26,2.26,0,0,0-1.718-.789,2.3,2.3,0,0,0-.5.055,2.3,2.3,0,0,1,1.777,2.184c0,.057-.024.07-.066.073h.934c.078,0,.136.01.133-.073a2.334,2.334,0,0,0-.1-.614L19.14,18.5h0a2.309,2.309,0,0,0-.454-.818Z" transform="translate(-16.468 -16.895)" fill="#f76672" fill-rule="evenodd"/>
      </g>
      <g id="Group_9564" data-name="Group 9564" transform="translate(0.726 12.57)">
        <path id="Path_6952" data-name="Path 6952" d="M4.042,20.529l-2.892-.666a1.521,1.521,0,0,0-.038.408l2.3.528.09.021a1.522,1.522,0,0,1-.59.895A1.53,1.53,0,0,0,4.133,20.55Z" transform="translate(-1.11 -19.863)" fill="#5d5360" fill-rule="evenodd"/>
      </g>
      <g id="Group_9565" data-name="Group 9565" transform="translate(9.572 12.94)">
        <path id="Path_6953" data-name="Path 6953" d="M17.542,20.428H14.626a1.8,1.8,0,0,0,.107.523h2.584a1.793,1.793,0,0,1-.425,1.07,1.771,1.771,0,0,0,1.2-1.594Z" transform="translate(-14.626 -20.428)" fill="#5d5360" fill-rule="evenodd"/>
      </g>
      <g id="Group_9566" data-name="Group 9566" transform="translate(11.927 8.547)">
        <path id="Path_6954" data-name="Path 6954" d="M19.779,14.578v-.862H18.6v.862a.377.377,0,0,1-.376.376H19.4A.377.377,0,0,0,19.779,14.578Z" transform="translate(-18.225 -13.716)" fill="#5d5360" fill-rule="evenodd"/>
      </g>
      <g id="Group_9567" data-name="Group 9567" transform="translate(6.106 1.991)">
        <path id="Path_6955" data-name="Path 6955" d="M9.33,4.047h1.162c.143.013.253.057.253.273V5.557a1.4,1.4,0,0,0,.337-.057V3.97c0-.216-.11-.259-.253-.272H9.415A1.367,1.367,0,0,0,9.33,4.047Z" transform="translate(-9.33 -3.698)" fill="#ffddce" fill-rule="evenodd"/>
      </g>
      <g id="Group_9568" data-name="Group 9568" transform="translate(3.084 5.296)">
        <path id="Path_6956" data-name="Path 6956" d="M5.041,8.806l1.627.538a1.446,1.446,0,0,1-.064.775H4.713v-1.2c0-.236.123-.184.329-.116Z" transform="translate(-4.713 -8.749)" fill="#ffe07d" fill-rule="evenodd"/>
      </g>
      <g id="Group_9569" data-name="Group 9569" transform="translate(4.647 5.831)">
        <path id="Path_6957" data-name="Path 6957" d="M8.252,10.4H7.429c-.442,0-.455-.733.064-.775l.758-.061.2.431Z" transform="translate(-7.101 -9.565)" fill="#ffece4" fill-rule="evenodd"/>
      </g>
      <g id="Group_9570" data-name="Group 9570" transform="translate(5.798 4.743)">
        <path id="Path_6958" data-name="Path 6958" d="M10.33,8.317l.272-.234c.682-.587,1.544.4.632,1l-.767.5-.386.251H8.86V8.991l.759-.062Z" transform="translate(-8.86 -7.904)" fill="#ff8086" fill-rule="evenodd"/>
      </g>
      <g id="Group_9571" data-name="Group 9571" transform="translate(4.647 6.254)">
        <path id="Path_6959" data-name="Path 6959" d="M8.252,10.625V10.22H7.178a.339.339,0,0,1-.074-.007.34.34,0,0,0,.325.413h.823Z" transform="translate(-7.1 -10.213)" fill="#ffddce" fill-rule="evenodd"/>
      </g>
      <g id="Group_9572" data-name="Group 9572" transform="translate(5.798 4.844)">
        <path id="Path_6960" data-name="Path 6960" d="M11.235,9.132c.551-.359.454-.862.14-1.075a.713.713,0,0,1-.391.67l-.6.387-.169.111-.386.25H8.86V9.88h1.222l.386-.251Z" transform="translate(-8.86 -8.057)" fill="#f76672" fill-rule="evenodd"/>
      </g>
      <g id="Group_9573" data-name="Group 9573" transform="translate(4.137 5.676)">
        <path id="Path_6961" data-name="Path 6961" d="M7.224,9.544l-.655-.216a1,1,0,0,0-.184.991H7.16a.34.34,0,0,1-.325-.413A.408.408,0,0,1,7.224,9.544Z" transform="translate(-6.321 -9.328)" fill="#ffc269" fill-rule="evenodd"/>
      </g>
      <path id="Path_6962" data-name="Path 6962" d="M14.874,5.073H12.21a.835.835,0,0,0-.834.834V8.973h-1a2.289,2.289,0,0,0,.062-.715h0a6.687,6.687,0,0,0-.63-2.925,3.138,3.138,0,0,0-.975-1.175,2.134,2.134,0,0,0,.571-1.511,1.952,1.952,0,1,0-3.9,0,.23.23,0,0,0,.23.23h.156a1.62,1.62,0,0,0-.022.265A1.6,1.6,0,0,0,7.153,4.707a3.878,3.878,0,0,0-.115,1L6.464,6.2l-1.4.113L3.457,5.782a.488.488,0,0,0-.46,0,.409.409,0,0,0-.143.343v1.2a.23.23,0,0,0,.23.23h.274L2.938,9a.23.23,0,0,0,.442.128l.457-1.58h.654a7.422,7.422,0,0,0,.364,5.813H4.442L2.719,11.44l.364-1.258a.23.23,0,0,0-.442-.128l-.348,1.2A2.314,2.314,0,0,0,.006,13.051a.23.23,0,0,0,.173.276l.327.075a1.76,1.76,0,0,0,3.4.783l.258.059a.3.3,0,0,0,.222-.012.264.264,0,0,0,.13-.177,2.289,2.289,0,0,0,.037-.229H9.366a1.961,1.961,0,0,0,3.88,0h.218a.315.315,0,0,0,.239-.087.3.3,0,0,0,.081-.224,2.608,2.608,0,0,0-.094-.623,3.59,3.59,0,0,0-.254-2.321.606.606,0,0,0,.275-.507V9.433h1.162a.835.835,0,0,0,.834-.834V5.907a.835.835,0,0,0-.834-.834Zm-11.926,9.6a1.291,1.291,0,0,1-.981.165h0A1.3,1.3,0,0,1,.958,13.507l2.5.574a1.293,1.293,0,0,1-.506.592ZM4.1,13.757.52,12.933a1.853,1.853,0,0,1,1.832-1.214L4.1,13.68Q4.1,13.719,4.1,13.757ZM7.574,9.748a2.048,2.048,0,0,0-.067.694v.868H6.665V10.119c0-1.347.735-1.587,1.065-1.626H9.985a.975.975,0,0,1-.209.661,1.068,1.068,0,0,1-.8.239H8.152A.554.554,0,0,0,7.574,9.748ZM7.507,11.77v.549H5.867a.656.656,0,0,1,.159-.393.568.568,0,0,1,.41-.156ZM9.975,8.032H7.883a8.592,8.592,0,0,1-.221-.852L8.3,6.768a.95.95,0,0,0,.5-.874.813.813,0,0,0-.507-.666.831.831,0,0,0-.772.085,2.717,2.717,0,0,1,.111-.583,1.622,1.622,0,0,0,.291-.057,1.906,1.906,0,0,0,.537-.213c.443.265,1.418,1.123,1.521,3.573ZM5.982,2.417a1.49,1.49,0,0,1,2.967.23,1.562,1.562,0,0,1-.86,1.483V2.919a.458.458,0,0,0-.462-.5H5.982Zm.348.725a1.146,1.146,0,0,1,.031-.265H7.594l.032,0a.274.274,0,0,1,0,.038V4.265a1.138,1.138,0,0,1-.165.012h0A1.136,1.136,0,0,1,6.329,3.142ZM6.031,6.7l.545-.044A.23.23,0,0,0,6.707,6.6l.984-.846h0a.457.457,0,0,1,.3-.124.354.354,0,0,1,.35.309.508.508,0,0,1-.288.444l-1.1.711H6.031V6.7Zm-.972.079.512-.041v.357h-.6c-.077,0-.1-.064-.1-.118A.183.183,0,0,1,5.059,6.777Zm-.545-.159a.665.665,0,0,0-.085.473s0,0,0,0H3.314V6.22l1.2.4Zm.463.935H7.02a.23.23,0,0,0,.125-.037l.1-.068c.05.221.107.437.169.64-.469.139-1.214.586-1.214,2.03v1.214a.96.96,0,0,0-.512.275,1.122,1.122,0,0,0-.288.711H4.941a6.767,6.767,0,0,1,.036-4.766Zm.379,5.812c-.085-.2-.167-.39-.244-.586H7.5c.31,0,.467-.141.467-.419V10.672H9.784a.23.23,0,1,0,0-.46H7.969A1.042,1.042,0,0,1,8,9.911c.012-.031.022-.057.148-.057h.826A1.485,1.485,0,0,0,10.11,9.47l.033-.037h3.108v.632a.148.148,0,0,1-.146.146H10.815a.23.23,0,1,0,0,.46H12.97a2.716,2.716,0,0,1,.336,1.421,2.5,2.5,0,0,0-3.8-.3,2.535,2.535,0,0,0-.723,1.57Zm5.95,1.679a1.516,1.516,0,0,1-1.473-1.218h2.945a1.516,1.516,0,0,1-1.473,1.218Zm1.734-1.678h-3.8a2.064,2.064,0,0,1,2.036-1.852,2.042,2.042,0,0,1,1.958,1.463l0,.008a2.124,2.124,0,0,1,.076.381ZM15.247,8.6a.374.374,0,0,1-.373.374H11.836V7.785h3.411Zm0-1.274H11.836V6.835h3.411Zm0-.95H11.836V5.907a.374.374,0,0,1,.373-.374h2.664a.374.374,0,0,1,.373.374Z" transform="translate(0 -0.656)"/>
    </g>
  </g>
</svg>
