<svg xmlns="http://www.w3.org/2000/svg" width="16" height="16" viewBox="0 0 16 16">
  <g id="vuesax_bold_directbox-default" data-name="vuesax/bold/directbox-default" transform="translate(-108 -188)">
    <g id="directbox-default" transform="translate(108 188)">
      <path id="Vector" d="M10.719.144A5.914,5.914,0,0,0,9.331,0,2.054,2.054,0,0,0,7.91.437a.43.43,0,0,0-.061.05L7.2,1.119a1.54,1.54,0,0,1-2.068-.006L4.489.487a.431.431,0,0,0-.061-.05A2.054,2.054,0,0,0,3.006,0,5.914,5.914,0,0,0,1.619.144C0,.544,0,1.725,0,2.763v.581C0,4.912,0,6.688,3.639,6.688H8.7c2.414,0,3.639-1.125,3.639-3.344V2.763C12.337,1.725,12.337.544,10.719.144ZM7.753,4.437H4.584a.439.439,0,1,1,0-.875H7.753a.439.439,0,1,1,0,.875Z" transform="translate(1.831 8.063)" fill="#292d32"/>
      <path id="Vector-2" data-name="Vector" d="M10.012,2.763V5.075a.487.487,0,0,0-.09-.025,7.082,7.082,0,0,0-1.687-.175,3.211,3.211,0,0,0-2.083.631,1.419,1.419,0,0,0-.187.15L5.3,6.288a.474.474,0,0,1-.59-.006l-.653-.619a1.181,1.181,0,0,0-.2-.163,3.2,3.2,0,0,0-2.076-.625A7.082,7.082,0,0,0,.09,5.05.487.487,0,0,0,0,5.075V2.763C0,1.469,0,0,3.069,0H6.943C10.012,0,10.012,1.469,10.012,2.763Z" transform="translate(2.994 1.25)" fill="#292d32"/>
      <path id="Vector-3" data-name="Vector" d="M0,0H16V16H0Z" fill="none" opacity="0"/>
      <path id="Vector-4" data-name="Vector" d="M0,0H16V16H0Z" transform="translate(16 16) rotate(180)" fill="none" opacity="0"/>
    </g>
  </g>
</svg>
