<svg xmlns="http://www.w3.org/2000/svg" width="23.798" height="20.962" viewBox="0 0 23.798 20.962">
  <g id="filter" transform="translate(23.798 0) rotate(90)">
    <path id="Path_3187" data-name="Path 3187" d="M2.789,0H1.394V16.826H0v4.183H1.394V23.8H2.789V21.009H4.183V16.826H2.789Z" transform="translate(0)" fill="#fff"/>
    <path id="Path_3188" data-name="Path 3188" d="M2.789,16.826V0H1.394V16.826H0v4.183H1.394V23.8H2.789V21.009H4.183V16.826Z" transform="translate(16.779)" fill="#fff"/>
    <path id="Path_3189" data-name="Path 3189" d="M2.789,0H1.394V10.319H0V14.5H1.394v9.3H2.789V14.5H4.183V10.319H2.789Z" transform="translate(11.202)" fill="#fff"/>
    <path id="Path_3190" data-name="Path 3190" d="M2.789,0H1.394V2.494H0V6.677H1.394V23.8H2.789V6.677H4.183V2.494H2.789Z" transform="translate(5.578)" fill="#fff"/>
  </g>
</svg>
