<svg xmlns="http://www.w3.org/2000/svg" xmlns:xlink="http://www.w3.org/1999/xlink" width="24" height="24" viewBox="0 0 24 24">
  <defs>
    <clipPath id="clip-path">
      <rect id="Rectangle_27" data-name="Rectangle 27" width="24" height="24" transform="translate(30 698)" fill="#363537"/>
    </clipPath>
  </defs>
  <g id="Mask_Group_3" data-name="Mask Group 3" transform="translate(-30 -698)" clip-path="url(#clip-path)">
    <g id="saudi-arabia" transform="translate(30 698)">
      <path id="Path_11" data-name="Path 11" d="M22.2,19.862H1.8a1.8,1.8,0,0,1-1.8-1.8V5.935a1.8,1.8,0,0,1,1.8-1.8H22.2a1.8,1.8,0,0,1,1.8,1.8V18.065A1.8,1.8,0,0,1,22.2,19.862Z" fill="#73af00"/>
      <g id="Group_8835" data-name="Group 8835">
        <path id="Path_12" data-name="Path 12" d="M4.966,9.482c.041.261.2.343.336.333a.338.338,0,0,0,.3-.317V8.6a.082.082,0,1,1,.163,0v.9a.326.326,0,0,0,.447.3L6.3,9.771c.008.753-.038,1.415-.039,1.427a.163.163,0,0,0,.151.174h.012a.163.163,0,0,0,.163-.152c0-.053.054-.778.039-1.58l.049-.02a.164.164,0,0,1,.133.006.466.466,0,0,0,.538-.087l.029-.029a.487.487,0,0,0,.118-.5l-.139-.417a.163.163,0,0,0,.121-.3l-.326-.163a.163.163,0,0,0-.228.2l.262.787a.162.162,0,0,1-.039.167l-.029.029a.14.14,0,0,1-.161.026A.488.488,0,0,0,6.613,9.3a5.626,5.626,0,0,0-.2-1.405A.163.163,0,0,0,6.1,8a5.608,5.608,0,0,1,.187,1.424L6.1,9.5V8.6a.408.408,0,0,0-.816,0v.79l-.166-.822a.163.163,0,1,0-.32.065Z" fill="#f5f5f5"/>
        <path id="Path_13" data-name="Path 13" d="M5.28,8.111a.163.163,0,0,0,.163-.163V7.785a.163.163,0,1,0-.326,0v.163A.163.163,0,0,0,5.28,8.111Z" fill="#f5f5f5"/>
        <path id="Path_14" data-name="Path 14" d="M6.911,7.948h.163a.163.163,0,1,0,0-.326H6.911a.163.163,0,1,0,0,.326Z" fill="#f5f5f5"/>
        <path id="Path_15" data-name="Path 15" d="M5.848,10.092l-.816.489a.163.163,0,1,0,.168.28l.816-.489a.163.163,0,1,0-.168-.28Z" fill="#f5f5f5"/>
        <path id="Path_16" data-name="Path 16" d="M8.048,10.38l0,0a.372.372,0,0,0,.075.153.32.32,0,0,0,.278.108.45.45,0,0,0,.339-.178.3.3,0,0,0,.034.02.309.309,0,0,0,.287-.009A.619.619,0,0,0,9.358,9.9a.167.167,0,0,0-.17-.155.164.164,0,0,0-.156.169s0,.2-.115.267a.4.4,0,0,1-.051-.137.163.163,0,0,0-.324.027c0,.024-.005.233-.167.251a.4.4,0,0,1,0-.213.163.163,0,0,0-.25-.173L8.033,10c-.043-.946-.143-2.048-.144-2.062a.163.163,0,1,0-.325.03c0,.015.117,1.29.152,2.264l-.025.024a.42.42,0,0,0-.357-.281.6.6,0,0,0-.574.364.386.386,0,0,0,.125.486.544.544,0,0,0,.486.022,1.364,1.364,0,0,1-.265.5.684.684,0,0,1-.521.266.429.429,0,0,1-.317-.135.931.931,0,0,1-.172-.584.163.163,0,0,0-.154-.171.16.16,0,0,0-.172.154,1.251,1.251,0,0,0,.256.82.748.748,0,0,0,.546.242H6.6a.994.994,0,0,0,.748-.38,1.687,1.687,0,0,0,.373-.836,1.849,1.849,0,0,1-.783,1.465.814.814,0,0,1-.817.06.7.7,0,0,1-.359-.69.163.163,0,1,0-.324-.04,1.024,1.024,0,0,0,.538,1.023,1.109,1.109,0,0,0,.494.118,1.207,1.207,0,0,0,.64-.193,2.169,2.169,0,0,0,.937-1.743C8.053,10.616,8.051,10.5,8.048,10.38Zm-.984.168c-.029-.019-.006-.081,0-.093a.277.277,0,0,1,.228-.16H7.3c.021,0,.076.007.1.13,0,.013,0,.026.006.04C7.228,10.572,7.106,10.576,7.064,10.548Z" fill="#f5f5f5"/>
        <path id="Path_17" data-name="Path 17" d="M5.362,12.048a.163.163,0,0,0-.223.058.335.335,0,0,1-.028.039l-.005-.013a1.1,1.1,0,0,1,0-.553.163.163,0,0,0-.315-.084,1.4,1.4,0,0,0,0,.752c.075.2.19.25.273.257H5.1a.429.429,0,0,0,.325-.233A.163.163,0,0,0,5.362,12.048Z" fill="#f5f5f5"/>
        <path id="Path_18" data-name="Path 18" d="M8.372,9.09a.162.162,0,0,0,.1-.035L9.3,8.409a.157.157,0,0,0,.027-.032.408.408,0,1,0-.469-.036L8.272,8.8a.163.163,0,0,0,.1.291Zm.741-1.142a.082.082,0,1,1-.082.082A.082.082,0,0,1,9.113,7.948Z" fill="#f5f5f5"/>
        <path id="Path_19" data-name="Path 19" d="M8.92,8.935a.163.163,0,0,0-.206.1.5.5,0,0,0,.064.481.329.329,0,0,0,.244.093.716.716,0,0,0,.225-.042.163.163,0,1,0-.1-.309.565.565,0,0,1-.133.028.312.312,0,0,1,.013-.149A.163.163,0,0,0,8.92,8.935Z" fill="#f5f5f5"/>
        <path id="Path_20" data-name="Path 20" d="M10.787,8.261a.163.163,0,0,0,.2-.111l.1-.326a.163.163,0,1,0-.313-.091l-.1.326A.163.163,0,0,0,10.787,8.261Z" fill="#f5f5f5"/>
        <path id="Path_21" data-name="Path 21" d="M9.836,8.242A.163.163,0,1,0,10,7.96c-.033-.019-.028-.073-.027-.084a.128.128,0,0,1,.075-.109.163.163,0,0,0-.1-.312.448.448,0,0,0-.3.383A.4.4,0,0,0,9.836,8.242Z" fill="#f5f5f5"/>
        <path id="Path_22" data-name="Path 22" d="M8.542,10.884a.163.163,0,0,0-.031.323.306.306,0,0,1,.031.166.163.163,0,1,0,.326,0C8.868,10.889,8.556,10.884,8.542,10.884Z" fill="#f5f5f5"/>
        <path id="Path_23" data-name="Path 23" d="M11.31,10.208a.376.376,0,0,0,.061,0,.557.557,0,0,0,.386-.193.163.163,0,0,0-.231-.231c-.1.1-.15.1-.164.1-.031,0-.059-.045-.066-.056a.163.163,0,0,0-.291.148A.441.441,0,0,0,11.31,10.208Z" fill="#f5f5f5"/>
        <path id="Path_24" data-name="Path 24" d="M14.082,9.062l0-.007a.163.163,0,0,0-.309.1.365.365,0,0,0,.265.254l.036,0a.4.4,0,0,0,.315-.218.163.163,0,0,0-.271-.181A.493.493,0,0,1,14.082,9.062Z" fill="#f5f5f5"/>
        <path id="Path_25" data-name="Path 25" d="M13.762,12.026c0-.7-.031-1.348-.073-1.92a8.26,8.26,0,0,1,.573,1.162.163.163,0,0,0,.153.106.165.165,0,0,0,.057-.01.163.163,0,0,0,.1-.21,10.8,10.8,0,0,0-.943-1.788c-.089-.879-.189-1.436-.191-1.446a.163.163,0,0,0-.321.058c0,.007.053.294.114.778-.125-.186-.242-.354-.339-.492l.008,0a.163.163,0,1,0,.1-.309l-.489-.163a.162.162,0,0,0-.184.059.164.164,0,0,0-.024.05.356.356,0,0,0-.34-.082.278.278,0,0,0-.156.29,1.474,1.474,0,0,0,.113.462c.1.272.156.472.054.568A.178.178,0,0,1,11.8,9.2c-.1-.026-.2-.159-.266-.358a.152.152,0,0,0-.013-.023,2.774,2.774,0,0,0-.05-.9.163.163,0,1,0-.32.064,1.553,1.553,0,0,1-.085,1.162.293.293,0,0,1-.244.111.094.094,0,0,1-.078-.036,1.572,1.572,0,0,1-.087-.919.163.163,0,0,0-.162-.186c-.281,0-.387.319-.481.6-.041.124-.118.354-.171.378-.1,0-.163-.29-.163-.49a.163.163,0,0,0-.163-.163h0a.163.163,0,0,0-.163.163c0,.376.128.816.489.816.269,0,.378-.293.469-.566a1.022,1.022,0,0,0,.185.58.418.418,0,0,0,.325.149.621.621,0,0,0,.5-.23.75.75,0,0,0,.061-.09.608.608,0,0,0,.342.257.47.47,0,0,0,.115.015.517.517,0,0,0,.355-.152.478.478,0,0,0,.054-.066.44.44,0,0,0,.121.018.66.66,0,0,0,.338-.1.163.163,0,0,0-.175-.275A.346.346,0,0,1,12.348,9a1.683,1.683,0,0,0-.124-.536,2.271,2.271,0,0,1-.084-.273l.038.035a.163.163,0,0,0,.231,0,.157.157,0,0,0,.024-.036c.169.233.517.722.875,1.287.068.694.128,1.578.128,2.549a.163.163,0,0,0,.326,0Z" fill="#f5f5f5"/>
        <path id="Path_26" data-name="Path 26" d="M13.925,8.437a.163.163,0,0,0,.326,0,1.663,1.663,0,0,0-.18-.562.163.163,0,0,0-.292.146A1.448,1.448,0,0,1,13.925,8.437Z" fill="#f5f5f5"/>
        <path id="Path_27" data-name="Path 27" d="M13.183,12.044a.163.163,0,0,0-.219.072.468.468,0,0,1-.068.1.911.911,0,0,1,.043-.3.163.163,0,0,0-.271-.163l-.326.326a.163.163,0,0,0,.231.231l.008-.008a.337.337,0,0,0,.087.171.3.3,0,0,0,.212.094.291.291,0,0,0,.045,0,.531.531,0,0,0,.331-.3A.163.163,0,0,0,13.183,12.044Z" fill="#f5f5f5"/>
        <path id="Path_28" data-name="Path 28" d="M13.12,10.731H11.97q.015-.061.031-.116c.458-.1.731-.243.811-.441a.365.365,0,0,0-.061-.366.4.4,0,0,0-.412-.176c-.232.047-.438.3-.586.7a1.875,1.875,0,0,0-.942.407,2.528,2.528,0,0,0-.338-1.084.163.163,0,1,0-.271.181,2.355,2.355,0,0,1,.3,1.214,1.291,1.291,0,0,1-.979,1.3c-.183,0-.263-.218-.3-.4a1.873,1.873,0,0,0,.783-.864A1.3,1.3,0,0,0,9.9,10.2l-.012-.028.01.01a.163.163,0,1,0,.231-.231c-.1-.1-.28-.245-.449-.175a.278.278,0,0,0-.156.29.694.694,0,0,0,.076.262.986.986,0,0,1,.092.677,1.38,1.38,0,0,1-.534.589.16.16,0,0,0-.123-.06h0a.163.163,0,0,0-.163.163c0,.029,0,.061,0,.093a8.577,8.577,0,0,1-1.049.574.163.163,0,0,0,.068.312.161.161,0,0,0,.067-.015,9.4,9.4,0,0,0,.974-.522.635.635,0,0,0,.589.536,1.386,1.386,0,0,0,1.091-.8.949.949,0,0,0,.109.156,1.838,1.838,0,0,0,1.246.479.163.163,0,0,0,.012-.326.349.349,0,0,1-.2-.1.28.28,0,0,1-.053-.214c.017-.2.665-.351,1.237-.36a.163.163,0,0,0,.151-.108l.163-.459a.163.163,0,0,0-.153-.218ZM12.4,9.952l.012,0c.016,0,.04.008.073.052.006.008.026.037.021.049-.019.046-.131.122-.366.192C12.247,10.042,12.348,9.963,12.4,9.952ZM11.419,12.1a1,1,0,0,1-.451-.274.693.693,0,0,1-.145-.574.479.479,0,0,1,.034-.069c.23-.021.843.07.886.245a.548.548,0,0,0-.345.426A.688.688,0,0,0,11.419,12.1Z" fill="#f5f5f5"/>
        <path id="Path_29" data-name="Path 29" d="M14.9,8.386,14.732,7.9a.163.163,0,0,0-.317.068c.113,1.126.325,3.321.325,3.572,0,.226-.4.671-1.052,1a.163.163,0,0,0,.146.292c.593-.3,1.232-.826,1.232-1.288,0-.241-.167-1.975-.262-2.949A.163.163,0,0,0,14.9,8.386Z" fill="#f5f5f5"/>
        <path id="Path_30" data-name="Path 30" d="M16.256,9.857A.163.163,0,0,0,16.53,9.7a.823.823,0,0,1-.023-.317.166.166,0,0,0,.17-.14.163.163,0,0,0-.138-.185.294.294,0,0,0-.269.091.373.373,0,0,0-.082.175L16,9.137a.163.163,0,0,0-.231.231Z" fill="#f5f5f5"/>
        <path id="Path_31" data-name="Path 31" d="M16.623,10.028l-.612.438a.163.163,0,1,0,.19.265l.612-.438a.163.163,0,1,0-.19-.265Z" fill="#f5f5f5"/>
        <path id="Path_32" data-name="Path 32" d="M16.569,10.641a.163.163,0,0,0,.014.216.452.452,0,0,1,.033.235.163.163,0,0,0,.157.169h.006a.163.163,0,0,0,.163-.157c.012-.333-.1-.455-.144-.491A.163.163,0,0,0,16.569,10.641Z" fill="#f5f5f5"/>
        <path id="Path_33" data-name="Path 33" d="M17.993,11.842a.163.163,0,0,0,.163-.163c0-.241-.012-.509-.033-.789a5.952,5.952,0,0,1,.382.71.163.163,0,0,0,.15.1.161.161,0,0,0,.064-.013.163.163,0,0,0,.086-.214,8.975,8.975,0,0,0-.746-1.287c-.064-.6-.148-1.185-.213-1.606a.158.158,0,0,0,.1-.025.161.161,0,0,0,.072-.147.159.159,0,0,0,.018.047.593.593,0,0,1,.059.4.163.163,0,0,0,.127.193.172.172,0,0,0,.033,0,.163.163,0,0,0,.16-.13.924.924,0,0,0-.1-.641.164.164,0,0,0-.225-.05.161.161,0,0,0-.073.148A.159.159,0,0,0,18,8.329L17.722,7.9a.163.163,0,0,0-.3.116c0,.013.127.729.237,1.591-.125-.177-.25-.349-.371-.514-.02-.247-.039-.475-.057-.664l.027-.01a.163.163,0,0,0,.073-.219l-.163-.326a.163.163,0,0,0-.308.089c.019.195.04.41.06.637-.1-.136-.2-.26-.28-.366a.163.163,0,0,0-.033-.27L16.281,7.8a.163.163,0,0,0-.2.248c.009.011.41.514.891,1.164a13.114,13.114,0,0,1,.06,2.434c-.014.043-.039.094-.063.1-.1.014-.334-.207-.452-.443a.227.227,0,0,0-.218-.148c-.175.011-.244.2-.368.554a2.3,2.3,0,0,1-.324.69,1.852,1.852,0,0,1-.2-.642.162.162,0,0,0,.315-.055c0-.243-.17-2.1-.265-3.111a.163.163,0,0,0,.094-.2L15.385,7.9a.163.163,0,0,0-.317.067c.111,1.164.319,3.411.325,3.721v-.008a.163.163,0,1,0-.323.046c.048.333.169.907.45,1a.272.272,0,0,0,.087.014.32.32,0,0,0,.23-.106,2.352,2.352,0,0,0,.4-.815c.024-.068.052-.148.079-.216.15.219.411.491.675.469a.4.4,0,0,0,.349-.318,9.187,9.187,0,0,0-.006-2.036c.137.193.275.39.406.585.051.488.087.978.087,1.38A.163.163,0,0,0,17.993,11.842Z" fill="#f5f5f5"/>
        <path id="Path_34" data-name="Path 34" d="M19.231,10.984c-.116-.861-.277-1.858-.378-2.47a.16.16,0,0,0,.137-.029.163.163,0,0,0,.031-.229l-.3-.387a.163.163,0,0,0-.29.127c0,.017.294,1.691.474,3.031a1.529,1.529,0,0,1-.269,1.224.722.722,0,0,1-.6.223.163.163,0,1,0-.021.326l.082,0a1.029,1.029,0,0,0,.776-.329A1.821,1.821,0,0,0,19.231,10.984Z" fill="#f5f5f5"/>
        <path id="Path_35" data-name="Path 35" d="M17.436,12.059a.165.165,0,0,0,.008.229.069.069,0,0,1,.019.034.077.077,0,0,1-.025.036.163.163,0,1,0,.231.231.37.37,0,0,0,.12-.278.388.388,0,0,0-.128-.266A.162.162,0,0,0,17.436,12.059Z" fill="#f5f5f5"/>
        <path id="Path_36" data-name="Path 36" d="M16.861,15.637H15.719v-.163a.163.163,0,0,0-.326,0v.163H6.748a2.277,2.277,0,0,0,1.468.489h7.177v.326a.163.163,0,0,0,.163.163h1.3a.489.489,0,1,0,0-.979Zm0,.652H15.719v-.163h1.3l-.029-.088a.158.158,0,0,1,.029.088A.163.163,0,0,1,16.861,16.289Z" fill="#f5f5f5"/>
      </g>
    </g>
  </g>
</svg>
