<svg xmlns="http://www.w3.org/2000/svg" xmlns:xlink="http://www.w3.org/1999/xlink" width="24" height="24" viewBox="0 0 24 24">
  <defs>
    <clipPath id="clip-path">
      <rect id="Rectangle_18785" data-name="Rectangle 18785" width="24" height="24" transform="translate(-0.083)" fill="#fff" stroke="#707070" stroke-width="1"/>
    </clipPath>
  </defs>
  <g id="Mask_Group_84" data-name="Mask Group 84" transform="translate(0.083)" clip-path="url(#clip-path)">
    <g id="delivery-man_1_" data-name="delivery-man (1)" transform="translate(0 0.656)">
      <g id="Group_9337" data-name="Group 9337" transform="translate(17.734 10.082)">
        <path id="Path_6802" data-name="Path 6802" d="M17.734,10.738h5.914v2.055a.925.925,0,0,1-.922.923H20.6l-1.269.641-1.6-.641Z" transform="translate(-17.734 -10.738)" fill="#ffe07d" fill-rule="evenodd"/>
      </g>
      <g id="Group_9338" data-name="Group 9338" transform="translate(10.698 13.059)">
        <path id="Path_6803" data-name="Path 6803" d="M17.734,13.716H20.6v1.318a.576.576,0,0,1-.574.574H10.7c0-.828,0-1.25.634-1.25h1.262a1.773,1.773,0,0,0,1.606-.641Z" transform="translate(-10.698 -13.716)" fill="#6f6571" fill-rule="evenodd"/>
      </g>
      <g id="Group_9339" data-name="Group 9339" transform="translate(6.841 14.952)">
        <path id="Path_6804" data-name="Path 6804" d="M11.823,15.608h8.2a5.051,5.051,0,0,1,.534,3.77c-.558-1.9-6.226-1.141-6.808,1.051H7.5c-.237-.536-.46-1.065-.655-1.6H8.6C12.171,17.483,11.024,18.083,11.823,15.608Z" transform="translate(-6.841 -15.608)" fill="#ffe07d" fill-rule="evenodd"/>
      </g>
      <g id="Group_9340" data-name="Group 9340" transform="translate(11.105 4.945)">
        <path id="Path_6805" data-name="Path 6805" d="M11.316,10.46a13.383,13.383,0,0,0,.474,1.818l1.8.706,2.01-.706c-.07-3.8-1.492-5.629-2.7-6.22a2.935,2.935,0,0,0-.882-.457s-.587.94-.618.94a5.046,5.046,0,0,0-.3,1.995Z" transform="translate(-11.105 -5.602)" fill="#eceaec" fill-rule="evenodd"/>
      </g>
      <g id="Group_9341" data-name="Group 9341" transform="translate(9.832 11.622)">
        <path id="Path_6806" data-name="Path 6806" d="M15.6,12.278H11.791c-.878.1-1.959.765-1.959,2.836v2.172h1.99V15.608c0-.828,0-1.25.634-1.25h1.262a1.773,1.773,0,0,0,1.606-.641A2.354,2.354,0,0,0,15.6,12.278Z" transform="translate(-9.832 -12.278)" fill="#ff8086" fill-rule="evenodd"/>
      </g>
      <g id="Group_9342" data-name="Group 9342" transform="translate(12.305 5.402)">
        <path id="Path_6807" data-name="Path 6807" d="M15.6,12.278c-.07-3.8-1.492-5.629-2.7-6.22a2.441,2.441,0,0,1-.6.307c1.071.81,2.145,2.62,2.206,5.912Z" transform="translate(-12.305 -6.058)" fill="#dad8db" fill-rule="evenodd"/>
      </g>
      <g id="Group_9343" data-name="Group 9343" transform="translate(13.393 11.622)">
        <path id="Path_6808" data-name="Path 6808" d="M15.6,12.278H14.511a2.354,2.354,0,0,1-.279,1.438,1.643,1.643,0,0,1-.838.641h.326a1.773,1.773,0,0,0,1.606-.641A2.354,2.354,0,0,0,15.6,12.278Z" transform="translate(-13.393 -12.278)" fill="#f76672" fill-rule="evenodd"/>
      </g>
      <g id="Group_9344" data-name="Group 9344" transform="translate(17.734 7.1)">
        <path id="Path_6809" data-name="Path 6809" d="M18.656,7.757h4.07a.925.925,0,0,1,.922.923v1.527H17.734V8.68a.925.925,0,0,1,.922-.923Z" transform="translate(-17.734 -7.757)" fill="#ffe07d" fill-rule="evenodd"/>
      </g>
      <g id="Group_9345" data-name="Group 9345" transform="translate(17.734 9.09)">
        <path id="Path_6810" data-name="Path 6810" d="M17.734,9.746h5.914V11.2H17.734Z" transform="translate(-17.734 -9.746)" fill="#ff8086" fill-rule="evenodd"/>
      </g>
      <g id="Group_9346" data-name="Group 9346" transform="translate(21.492 7.1)">
        <path id="Path_6811" data-name="Path 6811" d="M22.414,9.746h1.234V8.68a.925.925,0,0,0-.922-.923H21.492a.925.925,0,0,1,.922.923Z" transform="translate(-21.492 -7.757)" fill="#ffc269" fill-rule="evenodd"/>
      </g>
      <g id="Group_9347" data-name="Group 9347" transform="translate(22.414 9.09)">
        <path id="Path_6812" data-name="Path 6812" d="M22.414,11.2h1.234V9.746H22.414V11.2Z" transform="translate(-22.414 -9.746)" fill="#f76672" fill-rule="evenodd"/>
      </g>
      <g id="Group_9348" data-name="Group 9348" transform="translate(21.492 10.541)">
        <path id="Path_6813" data-name="Path 6813" d="M22.414,11.2v1.6a.925.925,0,0,1-.922.923h1.234a.922.922,0,0,0,.922-.923V11.2H22.414Z" transform="translate(-21.492 -11.197)" fill="#ffc269" fill-rule="evenodd"/>
      </g>
      <g id="Group_9349" data-name="Group 9349" transform="translate(13.751 16.239)">
        <path id="Path_6814" data-name="Path 6814" d="M13.751,20.428a3.477,3.477,0,0,1,6.809-1.051,3.567,3.567,0,0,1,.153.939c0,.128-.084.112-.2.112Q17.13,20.428,13.751,20.428Z" transform="translate(-13.751 -16.895)" fill="#ff8086" fill-rule="evenodd"/>
      </g>
      <g id="Group_9350" data-name="Group 9350" transform="translate(14.626 19.772)">
        <path id="Path_6815" data-name="Path 6815" d="M14.626,20.428h5.3a2.651,2.651,0,0,1-5.3,0Z" transform="translate(-14.626 -20.428)" fill="#6f6571" fill-rule="evenodd"/>
      </g>
      <g id="Group_9351" data-name="Group 9351" transform="translate(1.11 19.207)">
        <path id="Path_6816" data-name="Path 6816" d="M1.17,19.863l4.559,1.049A2.339,2.339,0,1,1,1.17,19.863Z" transform="translate(-1.11 -19.863)" fill="#6f6571" fill-rule="evenodd"/>
      </g>
      <g id="Group_9352" data-name="Group 9352" transform="translate(0.352 16.549)">
        <path id="Path_6817" data-name="Path 6817" d="M.829,18.585a3.182,3.182,0,0,1,2.933-1.364,3.234,3.234,0,0,1,2.867,3.206,3.183,3.183,0,0,1-.07.629c-.013.059-.052.035-.116.02l-.714-.164L1.17,19.863l-.341-.078-.477-.11a3.156,3.156,0,0,1,.477-1.089Z" transform="translate(-0.352 -17.205)" fill="#eceaec" fill-rule="evenodd"/>
      </g>
      <g id="Group_9353" data-name="Group 9353" transform="translate(3.757 9.816)">
        <path id="Path_6818" data-name="Path 6818" d="M3.757,17.216,5.6,10.843l.829-.371.927.371A10.726,10.726,0,0,0,7.3,18.829c.2.535.42,1.064.655,1.6H6.63Z" transform="translate(-3.757 -10.472)" fill="#ff8086" fill-rule="evenodd"/>
      </g>
      <g id="Group_9354" data-name="Group 9354" transform="translate(9.319 2.582)">
        <path id="Path_6819" data-name="Path 6819" d="M9.46,3.7l2.161-.46c.219.02.846.547.846.876l-.46,2.338a2.111,2.111,0,0,1-.6.089A2.089,2.089,0,0,1,9.46,3.7Z" transform="translate(-9.319 -3.238)" fill="#ffece4" fill-rule="evenodd"/>
      </g>
      <g id="Group_9355" data-name="Group 9355" transform="translate(8.763 0.352)">
        <path id="Path_6820" data-name="Path 6820" d="M8.763,3.7a2.632,2.632,0,1,1,5.262,0A2.815,2.815,0,0,1,12.9,6.058a2.509,2.509,0,0,1-.9.394V4.114c0-.33-.167-.4-.387-.416H8.763Z" transform="translate(-8.763 -1.008)" fill="#ff8086" fill-rule="evenodd"/>
      </g>
      <g id="Group_9356" data-name="Group 9356" transform="translate(10.017 0.352)">
        <path id="Path_6821" data-name="Path 6821" d="M10.017,1.405a2.568,2.568,0,0,1,1.377-.4A2.66,2.66,0,0,1,14.024,3.7,2.815,2.815,0,0,1,12.9,6.058a2.441,2.441,0,0,1-.61.311A3.06,3.06,0,0,0,13.117,4.2a2.782,2.782,0,0,0-2.751-2.813,2.54,2.54,0,0,0-.35.023Z" transform="translate(-10.017 -1.008)" fill="#f76672" fill-rule="evenodd"/>
      </g>
      <g id="Group_9357" data-name="Group 9357" transform="translate(8.601 16.63)">
        <path id="Path_6822" data-name="Path 6822" d="M9.832,17.286h1.99V18.54c0,.269-.146.289-.361.289H8.6c-.057-1.258.7-1.543,1.228-1.543Z" transform="translate(-8.601 -17.286)" fill="#6f6571" fill-rule="evenodd"/>
      </g>
      <g id="Group_9358" data-name="Group 9358" transform="translate(5.621 10.187)">
        <path id="Path_6823" data-name="Path 6823" d="M7.3,18.829a10.726,10.726,0,0,1,.056-7.986H6.419a10.719,10.719,0,0,0-.056,7.986c.2.535.419,1.064.655,1.6h.937c-.235-.536-.458-1.065-.655-1.6Z" transform="translate(-5.621 -10.843)" fill="#f76672" fill-rule="evenodd"/>
      </g>
      <g id="Group_9359" data-name="Group 9359" transform="translate(2.888 16.549)">
        <path id="Path_6824" data-name="Path 6824" d="M6.629,20.427,3.761,17.221a3.133,3.133,0,0,0-.873.035l2.756,3.081a3.172,3.172,0,0,1-.054.544l.14.032.714.164c.064.015.1.039.116-.02a3.172,3.172,0,0,0,.07-.629Z" transform="translate(-2.888 -17.205)" fill="#dad8db" fill-rule="evenodd"/>
      </g>
      <g id="Group_9360" data-name="Group 9360" transform="translate(11.823 14.952)">
        <path id="Path_6825" data-name="Path 6825" d="M20.025,15.608h-8.2v.722h6.739a1,1,0,0,1,1.023.717,3.33,3.33,0,0,1,.272,1.055,3.525,3.525,0,0,1,.7,1.277A5.051,5.051,0,0,0,20.025,15.608Z" transform="translate(-11.823 -15.608)" fill="#ffc269" fill-rule="evenodd"/>
      </g>
      <g id="Group_9361" data-name="Group 9361" transform="translate(16.468 16.239)">
        <path id="Path_6826" data-name="Path 6826" d="M19.858,18.1A3.453,3.453,0,0,0,17.232,16.9a3.522,3.522,0,0,0-.764.084,3.51,3.51,0,0,1,2.715,3.338c0,.088-.037.108-.1.112h1.427c.12,0,.207.016.2-.112a3.566,3.566,0,0,0-.153-.939l-.008-.025h0a3.527,3.527,0,0,0-.694-1.25Z" transform="translate(-16.468 -16.895)" fill="#f76672" fill-rule="evenodd"/>
      </g>
      <g id="Group_9362" data-name="Group 9362" transform="translate(1.11 19.207)">
        <path id="Path_6827" data-name="Path 6827" d="M5.59,20.881,1.17,19.863a2.324,2.324,0,0,0-.058.624l3.508.807.138.032a2.325,2.325,0,0,1-.9,1.367,2.337,2.337,0,0,0,1.872-1.781Z" transform="translate(-1.11 -19.863)" fill="#5d5360" fill-rule="evenodd"/>
      </g>
      <g id="Group_9363" data-name="Group 9363" transform="translate(14.626 19.772)">
        <path id="Path_6828" data-name="Path 6828" d="M19.082,20.428H14.626a2.75,2.75,0,0,0,.163.8h3.948a2.739,2.739,0,0,1-.65,1.636,2.706,2.706,0,0,0,1.838-2.435Z" transform="translate(-14.626 -20.428)" fill="#5d5360" fill-rule="evenodd"/>
      </g>
      <g id="Group_9364" data-name="Group 9364" transform="translate(18.225 13.059)">
        <path id="Path_6829" data-name="Path 6829" d="M20.6,15.033V13.716H18.8v1.318a.576.576,0,0,1-.574.574h1.8A.576.576,0,0,0,20.6,15.033Z" transform="translate(-18.225 -13.716)" fill="#5d5360" fill-rule="evenodd"/>
      </g>
      <g id="Group_9365" data-name="Group 9365" transform="translate(9.33 3.042)">
        <path id="Path_6830" data-name="Path 6830" d="M9.33,4.231h1.775c.219.02.387.088.387.418v1.89a2.132,2.132,0,0,0,.516-.086V4.114c0-.33-.167-.4-.387-.416H9.46a2.088,2.088,0,0,0-.13.533Z" transform="translate(-9.33 -3.698)" fill="#ffddce" fill-rule="evenodd"/>
      </g>
      <g id="Group_9366" data-name="Group 9366" transform="translate(4.713 8.093)">
        <path id="Path_6831" data-name="Path 6831" d="M5.215,8.836,7.7,9.658a2.209,2.209,0,0,1-.1,1.185H4.713V9.013c0-.36.187-.281.5-.177Z" transform="translate(-4.713 -8.749)" fill="#ffe07d" fill-rule="evenodd"/>
      </g>
      <g id="Group_9367" data-name="Group 9367" transform="translate(7.101 8.909)">
        <path id="Path_6832" data-name="Path 6832" d="M8.86,10.843H7.6c-.675,0-.695-1.12.1-1.185L8.86,9.565l.311.658Z" transform="translate(-7.101 -9.565)" fill="#ffece4" fill-rule="evenodd"/>
      </g>
      <g id="Group_9368" data-name="Group 9368" transform="translate(8.86 7.247)">
        <path id="Path_6833" data-name="Path 6833" d="M11.107,8.536l.416-.358c1.042-.9,2.359.617.966,1.521l-1.172.761-.59.383H8.86V9.565l1.16-.094Z" transform="translate(-8.86 -7.904)" fill="#ff8086" fill-rule="evenodd"/>
      </g>
      <g id="Group_9369" data-name="Group 9369" transform="translate(7.1 9.557)">
        <path id="Path_6834" data-name="Path 6834" d="M8.86,10.843v-.62H7.219a.518.518,0,0,1-.113-.011.52.52,0,0,0,.5.63H8.86Z" transform="translate(-7.1 -10.213)" fill="#ffddce" fill-rule="evenodd"/>
      </g>
      <g id="Group_9370" data-name="Group 9370" transform="translate(8.86 7.401)">
        <path id="Path_6835" data-name="Path 6835" d="M12.488,9.7c.842-.548.694-1.318.214-1.642a1.09,1.09,0,0,1-.6,1.024l-.913.592-.258.169-.59.382H8.86v.62h1.867l.59-.383Z" transform="translate(-8.86 -8.057)" fill="#f76672" fill-rule="evenodd"/>
      </g>
      <g id="Group_9371" data-name="Group 9371" transform="translate(6.321 8.672)">
        <path id="Path_6836" data-name="Path 6836" d="M7.7,9.658l-1-.33a1.521,1.521,0,0,0-.282,1.515H7.6a.52.52,0,0,1-.5-.63.624.624,0,0,1,.6-.554Z" transform="translate(-6.321 -9.328)" fill="#ffc269" fill-rule="evenodd"/>
      </g>
      <path id="Path_6837" data-name="Path 6837" d="M22.726,7.405h-4.07A1.276,1.276,0,0,0,17.383,8.68v4.684H15.86a3.5,3.5,0,0,0,.1-1.092h0A10.217,10.217,0,0,0,14.994,7.8a4.8,4.8,0,0,0-1.49-1.8A3.26,3.26,0,0,0,14.376,3.7a2.983,2.983,0,1,0-5.965,0,.352.352,0,0,0,.352.352H9a2.475,2.475,0,0,0-.034.405,2.441,2.441,0,0,0,1.961,2.391,5.925,5.925,0,0,0-.175,1.529l-.877.754L7.744,9.3,5.283,8.488a.745.745,0,0,0-.7,0,.624.624,0,0,0-.219.525v1.83a.352.352,0,0,0,.352.352h.419l-.642,2.218a.352.352,0,0,0,.675.2l.7-2.414h1a11.341,11.341,0,0,0,.556,8.882H6.787L4.155,17.134l.557-1.923a.352.352,0,0,0-.675-.2L3.5,16.855A3.536,3.536,0,0,0,.009,19.6a.352.352,0,0,0,.264.421l.5.115a2.69,2.69,0,0,0,5.2,1.2l.394.091A.459.459,0,0,0,6.7,21.4a.4.4,0,0,0,.2-.27,3.5,3.5,0,0,0,.057-.35h7.353a3,3,0,0,0,5.929,0h.334a.482.482,0,0,0,.365-.132.451.451,0,0,0,.124-.342,3.985,3.985,0,0,0-.144-.952,5.485,5.485,0,0,0-.389-3.546.926.926,0,0,0,.42-.775v-.966h1.776A1.276,1.276,0,0,0,24,12.793V8.679a1.275,1.275,0,0,0-1.274-1.274ZM4.5,22.074a1.972,1.972,0,0,1-1.5.253H3a1.992,1.992,0,0,1-1.54-2.035l3.813.878a1.976,1.976,0,0,1-.774.9Zm1.759-1.4L.794,19.416a2.831,2.831,0,0,1,2.8-1.855l2.679,3Q6.269,20.615,6.263,20.674Zm5.31-6.126a3.13,3.13,0,0,0-.1,1.06v1.327H10.184v-1.82c0-2.058,1.123-2.424,1.627-2.485h3.447a1.49,1.49,0,0,1-.319,1.01,1.632,1.632,0,0,1-1.22.366H12.457a.847.847,0,0,0-.883.541Zm-.1,3.09v.839H8.964a1,1,0,0,1,.242-.6.867.867,0,0,1,.626-.238Zm3.771-5.711h-3.2a13.128,13.128,0,0,1-.337-1.3l.972-.631a1.451,1.451,0,0,0,.757-1.336,1.243,1.243,0,0,0-.774-1.018,1.269,1.269,0,0,0-1.18.13,4.151,4.151,0,0,1,.17-.891,2.478,2.478,0,0,0,.445-.088,2.913,2.913,0,0,0,.821-.325c.677.4,2.166,1.717,2.324,5.46Zm-6.1-8.58a2.276,2.276,0,0,1,4.533.352,2.387,2.387,0,0,1-1.314,2.266V4.114a.7.7,0,0,0-.706-.766H9.14Zm.531,1.108a1.751,1.751,0,0,1,.047-.405H11.6l.049.007a.418.418,0,0,1,0,.058V6.171a1.739,1.739,0,0,1-.252.019h0a1.735,1.735,0,0,1-1.73-1.735ZM9.215,9.889l.833-.067a.352.352,0,0,0,.2-.084l1.5-1.293h0a.7.7,0,0,1,.451-.189.541.541,0,0,1,.534.472.775.775,0,0,1-.44.678l-1.675,1.087H9.215v-.6Zm-1.486.12.783-.063v.546H7.6c-.118,0-.147-.1-.15-.18A.279.279,0,0,1,7.729,10.009ZM6.9,9.766a1.016,1.016,0,0,0-.13.723s0,0,0,0h-1.7V9.157L6.9,9.763ZM7.6,11.195h3.122a.352.352,0,0,0,.191-.057l.159-.1c.077.338.164.668.259.979-.717.212-1.855.9-1.855,3.1V16.97a1.467,1.467,0,0,0-.783.42,1.715,1.715,0,0,0-.44,1.087H7.549A10.339,10.339,0,0,1,7.6,11.195Zm.579,8.881c-.13-.3-.255-.6-.373-.9h3.65c.473,0,.713-.215.713-.64V15.959h2.775a.352.352,0,1,0,0-.7H12.177a1.591,1.591,0,0,1,.054-.459c.018-.047.033-.087.226-.087h1.262a2.268,2.268,0,0,0,1.729-.585c.017-.018.034-.037.05-.056h4.749v.966a.226.226,0,0,1-.222.223h-3.5a.352.352,0,0,0,0,.7h3.293a4.151,4.151,0,0,1,.513,2.171,3.815,3.815,0,0,0-5.811-.454,3.873,3.873,0,0,0-1.105,2.4Zm9.092,2.565a2.317,2.317,0,0,1-2.25-1.861h4.5a2.317,2.317,0,0,1-2.25,1.861Zm2.65-2.564h-5.8a3.153,3.153,0,0,1,3.111-2.83,3.119,3.119,0,0,1,2.992,2.235l0,.012a3.245,3.245,0,0,1,.116.582ZM23.3,12.793a.572.572,0,0,1-.571.571H18.086V11.548H23.3Zm0-1.947H18.086V10.1H23.3Zm0-1.451H18.086V8.68a.572.572,0,0,1,.571-.571h4.07a.572.572,0,0,1,.571.571Z" transform="translate(0 -0.656)"/>
    </g>
  </g>
</svg>
