<svg xmlns="http://www.w3.org/2000/svg" xmlns:xlink="http://www.w3.org/1999/xlink" width="48" height="48" viewBox="0 0 48 48">
  <defs>
    <clipPath id="clip-path">
      <rect id="Rectangle_18705" data-name="Rectangle 18705" width="48" height="48" transform="translate(1147 1209)" fill="#408ddb" stroke="#707070" stroke-width="1"/>
    </clipPath>
  </defs>
  <g id="Mask_Group_24" data-name="Mask Group 24" transform="translate(-1147 -1209)" clip-path="url(#clip-path)">
    <path id="icons8_easy_1" d="M21.307-.024a1.778,1.778,0,0,0-1.75,1.8V3.556a1.778,1.778,0,1,0,3.556,0V1.778a1.778,1.778,0,0,0-1.806-1.8ZM12.428,3.538a1.778,1.778,0,0,0-1.24,3.052l1.778,1.778A1.778,1.778,0,1,0,15.48,5.854L13.7,4.077A1.778,1.778,0,0,0,12.428,3.538Zm17.762,0a1.778,1.778,0,0,0-1.222.538L27.189,5.855A1.778,1.778,0,1,0,29.7,8.369l1.778-1.778a1.778,1.778,0,0,0-1.292-3.052ZM41.273,5.372a3.008,3.008,0,0,0-2.361.875L19.564,25.6s-3.12-5.872-4.684-7.438c-2.729-2.727-6.907-2.962-8.3-1.57l-.74.736a1.664,1.664,0,0,0,0,2.354L9.6,23.435l2.049,8.612a12.856,12.856,0,0,0,3.413,6.111L22.605,45.7a7.762,7.762,0,0,0,10.98,0l2.16-2.16,9.483-9.483a3.131,3.131,0,0,0,.441-3.993,3.017,3.017,0,0,0-4.594-.385l.955-.955a3.124,3.124,0,0,0,.441-3.99,3.018,3.018,0,0,0-4.594-.389l.951-.952A3.129,3.129,0,0,0,39.27,19.4a3.018,3.018,0,0,0-4.594-.385l8.389-8.389a3.124,3.124,0,0,0,.441-3.99A3.023,3.023,0,0,0,41.273,5.372Z" transform="translate(1145.225 1209.024)" fill="#408ddb" stroke="#707070" stroke-width="1"/>
  </g>
</svg>
