<svg xmlns="http://www.w3.org/2000/svg" width="24" height="17.6" viewBox="0 0 24 17.6">
  <g id="Group_9465" data-name="Group 9465" transform="translate(-2998 -3877.2)">
    <path id="Path_144" data-name="Path 144" d="M21.366,4.234a.8.8,0,0,0-1.131,0L17.7,6.774A11.577,11.577,0,0,0,12.8,5.6C6.3,5.6,1.185,12.033.97,12.306a.8.8,0,0,0,0,.987A22.179,22.179,0,0,0,6.429,18.04L4.234,20.234a.8.8,0,1,0,1.131,1.131l16-16a.8.8,0,0,0,0-1.131ZM8.8,12.8a4,4,0,0,1,4-4,3.914,3.914,0,0,1,2.184.685l-5.5,5.5A3.914,3.914,0,0,1,8.8,12.8Z" transform="translate(2997.2 3873.2)" fill="#707070"/>
    <path id="Path_145" data-name="Path 145" d="M24.63,12.306a22.35,22.35,0,0,0-4.093-3.85L16.744,12.25a3.9,3.9,0,0,1,.056.55,4,4,0,0,1-4,4,3.9,3.9,0,0,1-.55-.056l-2.72,2.72A10.823,10.823,0,0,0,12.8,20c6.5,0,11.615-6.433,11.83-6.706A.8.8,0,0,0,24.63,12.306Z" transform="translate(2997.2 3873.2)" fill="#707070"/>
  </g>
</svg>
