<svg xmlns="http://www.w3.org/2000/svg" width="24.103" height="18.758" viewBox="0 0 24.103 18.758">
  <g id="Group_30" data-name="Group 30" transform="translate(0 0)">
    <path id="Path_3184" data-name="Path 3184" d="M121.854,95.064a1.742,1.742,0,0,1-.514-1.247,1.815,1.815,0,0,1,.547-1.268l1.266-1.266-.947-.947-1.3,1.3A3.076,3.076,0,0,0,120,93.873a3.171,3.171,0,0,0,.948,2.18l.546.546a1.741,1.741,0,0,1,.514,1.241,1.813,1.813,0,0,1-.546,1.273l-.793.793a.67.67,0,0,0,0,.948h0a.67.67,0,0,0,.947,0l.824-.824a3.076,3.076,0,0,0,.905-2.239,3.171,3.171,0,0,0-.948-2.18Z" transform="translate(-120 -84.104)" fill="#fff"/>
    <path id="Path_3185" data-name="Path 3185" d="M193.854,95.064a1.742,1.742,0,0,1-.514-1.247,1.815,1.815,0,0,1,.547-1.268l1.266-1.266-.947-.947-1.3,1.3A3.075,3.075,0,0,0,192,93.873a3.171,3.171,0,0,0,.948,2.18l.546.546a1.741,1.741,0,0,1,.514,1.241,1.813,1.813,0,0,1-.546,1.273l-.793.793a.67.67,0,0,0,0,.948h0a.67.67,0,0,0,.947,0l.824-.824a3.076,3.076,0,0,0,.905-2.239,3.172,3.172,0,0,0-.948-2.18Z" transform="translate(-185.974 -84.104)" fill="#fff"/>
    <path id="Path_3186" data-name="Path 3186" d="M198.027,23.314l1.937-1.937-1.5-1.5,0,0,1.506,1.506a1.339,1.339,0,0,0,1.893-1.893l-2.718-2.718h0l-.122-.121a1.339,1.339,0,0,0-1.894,1.893h0l0,0h0l-1.937,1.937c-4.58-4.006-9.427-5.722-11.315-3.834l17.99,17.99C203.751,32.742,202.034,27.894,198.027,23.314Z" transform="translate(-178.526 -15.872)" fill="#fff"/>
  </g>
</svg>
