<svg id="logo" xmlns="http://www.w3.org/2000/svg" width="20.91" height="20.911" viewBox="0 0 20.91 20.911">
  <path id="Path_4106" data-name="Path 4106" d="M-634.756,306.229h-9.885a5.519,5.519,0,0,0-5.513,5.513v9.885a5.519,5.519,0,0,0,5.513,5.513h9.885a5.519,5.519,0,0,0,5.513-5.513v-9.885A5.519,5.519,0,0,0-634.756,306.229Zm3.612,15.4a3.616,3.616,0,0,1-3.612,3.612h-9.885a3.616,3.616,0,0,1-3.612-3.612v-9.885a3.616,3.616,0,0,1,3.612-3.612h9.885a3.616,3.616,0,0,1,3.612,3.612Z" transform="translate(650.154 -306.229)" fill="#363537"/>
  <path id="Path_4107" data-name="Path 4107" d="M-632.562,318.118a5.709,5.709,0,0,0-5.7,5.7,5.709,5.709,0,0,0,5.7,5.7,5.709,5.709,0,0,0,5.7-5.7A5.709,5.709,0,0,0-632.562,318.118Zm0,9.5a3.806,3.806,0,0,1-3.8-3.8,3.807,3.807,0,0,1,3.8-3.8,3.806,3.806,0,0,1,3.8,3.8A3.806,3.806,0,0,1-632.562,327.623Z" transform="translate(643.018 -313.365)" fill="#363537"/>
  <path id="Path_4108" data-name="Path 4108" d="M-611.862,315.49h0a1.188,1.188,0,0,0-1.188,1.188,1.188,1.188,0,0,0,1.188,1.188h0a1.188,1.188,0,0,0,1.188-1.188A1.188,1.188,0,0,0-611.862,315.49Z" transform="translate(627.882 -311.788)" fill="#363537"/>
</svg>
