<svg xmlns="http://www.w3.org/2000/svg" xmlns:xlink="http://www.w3.org/1999/xlink" width="24" height="24" viewBox="0 0 24 24">
  <defs>
    <clipPath id="clip-path">
      <rect id="Rectangle_18808" data-name="Rectangle 18808" width="24" height="24" fill="#fff" stroke="#707070" stroke-width="1"/>
    </clipPath>
  </defs>
  <g id="Mask_Group_172" data-name="Mask Group 172" clip-path="url(#clip-path)">
    <g id="languages_1_" data-name="languages (1)" transform="translate(0 0)">
      <path id="Path_6883" data-name="Path 6883" d="M2.164,12.826A11.15,11.15,0,0,1,6.135,4.283c1.945-1.642,7.409-1.83,7.409-1.83l3.96.023c.029.012.065,0,.094.017A11.019,11.019,0,0,1,24,12.808c0,6.171-4.6,10.371-10.773,10.371-1.855,0-3.494.37-5.034-.431a11.173,11.173,0,0,1-6.029-9.922Z" transform="translate(-2.164 0)" fill="#94ccd4"/>
      <path id="Path_6884" data-name="Path 6884" d="M8.5,4.283a14.579,14.579,0,0,0,2.813,1.581c1.255.367,2.889-.41,3.224,1.44a7.273,7.273,0,0,0,.095,1.014,2.614,2.614,0,0,0,.382.982c.191.3.7.382.994.585a2.007,2.007,0,0,0,2.351.136l.068-.036c1.459-.715,2.317-2.36.8-3.562a2.307,2.307,0,0,1-.149-3.174l.418-.484c-.325-.134-.192-.525-.532-.629A11.194,11.194,0,0,0,8.5,4.283Z" transform="translate(-4.532 0)" fill="#b7e546"/>
      <path id="Path_6885" data-name="Path 6885" d="M16.956,10.06a3.479,3.479,0,0,1,1.036-2.453c.56-.641.754-1.023,1.524-.315.73.908.01,2.035,1.562,3.584a1.433,1.433,0,0,1,.414,1.055s0-.069,0-.069a1.731,1.731,0,0,1-1.666,1.756,3.428,3.428,0,0,1-2.87-3.557Z" transform="translate(-14.448 0)" fill="#b7e546"/>
      <path id="Path_6886" data-name="Path 6886" d="M18.278,10.8a1.435,1.435,0,0,1,.414,1.056h0a2.009,2.009,0,0,1-1.52,1.692,1.815,1.815,0,0,0,.477.067,2.05,2.05,0,0,0,2.009-1.759h0a1.435,1.435,0,0,0-.414-1.056c-1.552-1.548-.652-2.758-1.383-3.666a1.018,1.018,0,0,0-1.248-.207,1.478,1.478,0,0,1,.282.207c.73.908-.169,2.118,1.383,3.666Z" transform="translate(-12.271 0)" fill="#abd641"/>
      <path id="Path_6887" data-name="Path 6887" d="M13.766.845V6.423l.355.337c0,.467.531.537,1,.537l2.551-.019a.563.563,0,0,1,.33.107l2.105,1.462a.282.282,0,0,0,.447-.228l-.2-.7a.563.563,0,0,1,.563-.563h.676a.845.845,0,0,0,.845-.845l.1-5.232c0-.467-.185-.959-.652-.959L21.654,0H14.612a.845.845,0,0,0-.845.845Z" transform="translate(-12.308 0)" fill="#dc4955"/>
      <path id="Path_6888" data-name="Path 6888" d="M13.527,6.423V6.7a.845.845,0,0,0,.845.845H17.4a.563.563,0,0,1,.33.107L20.01,9.311a.281.281,0,0,0,.447-.228V8.113a.563.563,0,0,1,.563-.563H21.7a.845.845,0,0,0,.845-.845V.845A.845.845,0,0,0,21.7,0h-.282v6.31a.113.113,0,0,1-.113.113h-.282a1.691,1.691,0,0,0-1.5.9.169.169,0,0,1-.249.06l-.887-.643a1.681,1.681,0,0,0-.992-.321Z" transform="translate(-12.069 0)" fill="#d82f3c"/>
      <path id="Path_6889" data-name="Path 6889" d="M4.122,23.024A11.426,11.426,0,0,0,15.564,11.615a11.221,11.221,0,0,0-4.526-9.122,11.183,11.183,0,0,1,5.6,15.589s-2.655,2.1-4,3.091a19.273,19.273,0,0,1-5.451,2.243s-4,.136-5.54-.659a11.5,11.5,0,0,0,2.471.267Z" transform="translate(4.396 0)" fill="#6fbbc6"/>
      <path id="Path_6890" data-name="Path 6890" d="M2.963,22.747c.9-1.251,2.549-2.629,2.478-4.29a4.494,4.494,0,0,1,.237-1.67l.008-.021a2.5,2.5,0,0,1,.412-.729,12.516,12.516,0,0,1,2.033-2.4,2.036,2.036,0,0,1,2.8.832c.45,1.139.574,2.7,1.751,3.314a1.875,1.875,0,0,0,2.251-.336c.928-1.205,2.227-.04,3.036.638-.321.6-1.632,1.04-2.056,1.573a8.563,8.563,0,0,1-5.9,3.524c-2.4.435-4.858.706-7.022-.418Z" transform="translate(3.066 0)" fill="#b7e546"/>
      <path id="Path_6891" data-name="Path 6891" d="M2.964,22.758a11.187,11.187,0,0,0,6.291,1.181h0a11.209,11.209,0,0,0,8.693-5.857c-.639-.536-1.586-1.378-2.414-1.109A11.477,11.477,0,0,1,2.964,22.758Z" transform="translate(3.089 0)" fill="#abd641"/>
      <path id="Path_6892" data-name="Path 6892" d="M11.664,13.083v5.578L12.02,19c0,.467.531.537,1,.537l2.551-.019a.563.563,0,0,1,.33.107L18,21.085a.282.282,0,0,0,.447-.228l-.2-.7a.563.563,0,0,1,.563-.563h.676a.845.845,0,0,0,.845-.845l.1-5.232c0-.467-.185-.959-.652-.959l-.236-.316H12.51a.845.845,0,0,0-.845.845Z" transform="translate(-8.104 0)" fill="#ffbf54"/>
      <path id="Path_6893" data-name="Path 6893" d="M11.425,18.661v.282a.845.845,0,0,0,.845.845h3.024a.563.563,0,0,1,.33.107l2.284,1.654a.281.281,0,0,0,.447-.228v-.969a.563.563,0,0,1,.563-.563h.676a.845.845,0,0,0,.845-.845V13.083a.845.845,0,0,0-.845-.845h-.282v6.31a.113.113,0,0,1-.113.113h-.282a1.691,1.691,0,0,0-1.5.9.169.169,0,0,1-.249.06l-.887-.643a1.681,1.681,0,0,0-.992-.321Z" transform="translate(-7.865 0)" fill="#ffa442"/>
      <path id="Path_6894" data-name="Path 6894" d="M15.75,2.765a.362.362,0,0,1,0-.724h1.875V1.425a.362.362,0,1,1,.724,0v.616h1.875a.362.362,0,1,1,0,.724h-.751a5.175,5.175,0,0,1-1,2.082A4.489,4.489,0,0,0,19.75,5.7l.5.222a.362.362,0,1,1-.295.662l-.5-.222a5.214,5.214,0,0,1-1.468-.98,5.214,5.214,0,0,1-1.468.98l-.5.222a.362.362,0,0,1-.295-.662l.5-.222A4.487,4.487,0,0,0,17.5,4.847a5.174,5.174,0,0,1-1-2.082ZM17.987,4.3a4.451,4.451,0,0,0,.741-1.53H17.247A4.451,4.451,0,0,0,17.987,4.3Z" transform="translate(-11.974 0)" fill="#faf8f8"/>
      <path id="Path_6895" data-name="Path 6895" d="M13.158,13.787h1.685a.362.362,0,0,1,0,.724h-.48v1.135H15.8a1.291,1.291,0,0,1,1.16-1.859H18.01a.362.362,0,0,1,0,.724H16.964a.567.567,0,0,0,0,1.135h1.162a.362.362,0,1,1,0,.724H16.964a.568.568,0,0,0-.567.567.561.561,0,0,0,.567.567,2,2,0,0,0,1.487-.475.362.362,0,0,1,.512.512,2.68,2.68,0,0,1-2,.687,1.291,1.291,0,0,1-1.16-1.859H14.363v1.5a.362.362,0,0,1-.724,0V14.511h-.48a.362.362,0,0,1,0-.724Z" transform="translate(-7.865 0)" fill="#faf8f8"/>
      <path id="Path_6896" data-name="Path 6896" d="M9.255,7.047l.014.012a14.979,14.979,0,0,1,1.292,1.249,1.842,1.842,0,0,0-.692-2c-.994-.821-.627-2.42.068-3.325l.418-.484q-.487-.2-1-.357c-.3.456-.567.841-.567.841a3.218,3.218,0,0,0,.463,4.07Z" transform="translate(5.079 0)" fill="#abd641"/>
      <path id="Path_6897" data-name="Path 6897" d="M8.289,9.234c.013.022.027.044.041.066a2.672,2.672,0,0,0,3.48.922l.068-.036c1.373-.673,2.313-2.454,1.158-3.663a2.656,2.656,0,0,1-1.668,2.938L11.3,9.5a2.9,2.9,0,0,1-2.869-.166c-.047-.031-.094-.063-.139-.1Z" transform="translate(2.155 0)" fill="#abd641"/>
      <g id="Group_9462" data-name="Group 9462" transform="translate(6.048 22.757)">
        <path id="Path_6898" data-name="Path 6898" d="M11.544,23.925h0Z" transform="translate(-5.126 -22.757)" fill="#94ccd4"/>
        <path id="Path_6899" data-name="Path 6899" d="M8.1,22.94l-.033.015Z" transform="translate(1.777 -22.757)" fill="#94ccd4"/>
        <path id="Path_6900" data-name="Path 6900" d="M17.344,22.757q.3.155.608.291-.3-.135-.6-.288l0,0Z" transform="translate(-17.344 -22.757)" fill="#94ccd4"/>
      </g>
      <path id="Path_6901" data-name="Path 6901" d="M9.239,6.616l-.071,4.86a.864.864,0,0,1-.866.862l-2.719.089a.579.579,0,0,0-.339.109L3.388,14.1a.289.289,0,0,1-.458-.233l-.117-.758a.576.576,0,0,0-.577-.574l-.9,0c-.478,0-.949-.114-.949-.589V5.972a.864.864,0,0,1,.866-.862H8.761C9.24,5.11,9.239,6.14,9.239,6.616Z" transform="translate(14.372 0)" fill="#faf8f8"/>
      <path id="Path_6902" data-name="Path 6902" d="M4.2,6.717l0-.008a.459.459,0,0,1,.426-.286h0a.459.459,0,0,1,.426.285l0,.01L6.674,11A.362.362,0,1,1,6,11.259l-.314-.833H3.56l-.318.834A.362.362,0,1,1,2.565,11ZM5.409,9.7,4.626,7.627,3.836,9.7Z" transform="translate(14.761 0)" fill="#aad8de"/>
      <path id="Path_6903" data-name="Path 6903" d="M0,11.842v.1a.864.864,0,0,0,.866.861h.693a.576.576,0,0,1,.577.575v.988a.289.289,0,0,0,.458.232l2.34-1.686a.58.58,0,0,1,.339-.109h3.1a.864.864,0,0,0,.866-.861V5.972a.864.864,0,0,0-.866-.862h-.1V11.6a.241.241,0,0,1-.241.241H5.273a1.546,1.546,0,0,0-.9.292l-1.079.778A.194.194,0,0,1,3,12.822a1.546,1.546,0,0,0-1.438-.98Z" transform="translate(14.761 0)" fill="#f0e9e6"/>
    </g>
  </g>
</svg>
