<svg xmlns="http://www.w3.org/2000/svg" xmlns:xlink="http://www.w3.org/1999/xlink" width="24" height="24" viewBox="0 0 24 24">
  <defs>
    <clipPath id="clip-path">
      <rect id="Rectangle_18841" data-name="Rectangle 18841" width="24" height="24" transform="translate(163 305)" fill="#5b5b5b" stroke="#707070" stroke-width="1"/>
    </clipPath>
  </defs>
  <g id="Mask_Group_172" data-name="Mask Group 172" transform="translate(-163 -305)" clip-path="url(#clip-path)">
    <path id="icons8_list_of_thumbnails" d="M5.455,4.364A1.091,1.091,0,0,0,4.364,5.455V9.818a1.091,1.091,0,0,0,1.091,1.091h5.455A1.091,1.091,0,0,0,12,9.818V5.455a1.091,1.091,0,0,0-1.091-1.091ZM16.364,6.545a1.091,1.091,0,1,0,0,2.182H27.273a1.091,1.091,0,1,0,0-2.182ZM5.455,13.091a1.091,1.091,0,0,0-1.091,1.091v4.364a1.091,1.091,0,0,0,1.091,1.091h5.455A1.091,1.091,0,0,0,12,18.545V14.182a1.091,1.091,0,0,0-1.091-1.091Zm10.909,2.182a1.091,1.091,0,1,0,0,2.182H27.273a1.091,1.091,0,1,0,0-2.182ZM5.455,21.818a1.091,1.091,0,0,0-1.091,1.091v4.364a1.091,1.091,0,0,0,1.091,1.091h5.455A1.091,1.091,0,0,0,12,27.273V22.909a1.091,1.091,0,0,0-1.091-1.091ZM16.364,24a1.091,1.091,0,1,0,0,2.182H27.273a1.091,1.091,0,1,0,0-2.182Z" transform="translate(158.636 300.636)" fill="#5b5b5b"/>
  </g>
</svg>
