<svg xmlns="http://www.w3.org/2000/svg" xmlns:xlink="http://www.w3.org/1999/xlink" width="24" height="24" viewBox="0 0 24 24">
  <defs>
    <clipPath id="clip-path">
      <rect id="Rectangle_18674" data-name="Rectangle 18674" width="24" height="24" transform="translate(917 321)" fill="#363537"/>
    </clipPath>
  </defs>
  <g id="Mask_Group_17" data-name="Mask Group 17" transform="translate(-917 -321)" clip-path="url(#clip-path)">
    <path id="icons8_marker" d="M12.5.5a8.01,8.01,0,0,0-8,8c0,7.057,7.314,15.473,7.625,15.828a.5.5,0,0,0,.375.172.515.515,0,0,0,.375-.172C13.186,23.967,20.5,15.406,20.5,8.5A8.01,8.01,0,0,0,12.5.5Zm0,5.5a3,3,0,1,1-3,3A3,3,0,0,1,12.5,6Z" transform="translate(916.5 320.5)" fill="#363537"/>
  </g>
</svg>
