<svg xmlns="http://www.w3.org/2000/svg" width="24" height="24" viewBox="0 0 24 24">
  <g id="vuesax_bold_gps" data-name="vuesax/bold/gps" transform="translate(-556 -252)">
    <path id="Vector" d="M20.75,10H18.71A8.009,8.009,0,0,0,11.5,2.79V.75a.75.75,0,0,0-1.5,0V2.79A8.009,8.009,0,0,0,2.79,10H.75a.75.75,0,0,0,0,1.5H2.79A8.009,8.009,0,0,0,10,18.71v2.04a.75.75,0,0,0,1.5,0V18.71a8.009,8.009,0,0,0,7.21-7.21h2.04a.75.75,0,0,0,0-1.5Zm-10,3.87a3.12,3.12,0,1,1,3.12-3.12A3.124,3.124,0,0,1,10.75,13.87Z" transform="translate(557.25 253.25)" fill="#292d32"/>
    <path id="Vector-2" data-name="Vector" d="M0,0H24V24H0Z" transform="translate(556 252)" fill="none" opacity="0"/>
    <path id="Vector-3" data-name="Vector" d="M0,0H24V24H0Z" transform="translate(580 276) rotate(180)" fill="none" opacity="0"/>
  </g>
</svg>
