<svg xmlns="http://www.w3.org/2000/svg" xmlns:xlink="http://www.w3.org/1999/xlink" width="16" height="16" viewBox="0 0 16 16">
  <defs>
    <clipPath id="clip-path">
      <rect id="Rectangle_18754" data-name="Rectangle 18754" width="16" height="16" fill="#fff" stroke="#707070" stroke-width="1"/>
    </clipPath>
  </defs>
  <g id="Mask_Group_30" data-name="Mask Group 30" clip-path="url(#clip-path)">
    <path id="icons8_password" d="M9.143.762A4.562,4.562,0,0,0,4.571,5.333V6.1A1.528,1.528,0,0,0,3.048,7.619v7.619a1.528,1.528,0,0,0,1.524,1.524h9.143a1.528,1.528,0,0,0,1.524-1.524V7.619A1.528,1.528,0,0,0,13.714,6.1V5.333A4.562,4.562,0,0,0,9.143.762Zm0,1.524A2.985,2.985,0,0,1,12.19,5.333V6.1H6.1V5.333A2.985,2.985,0,0,1,9.143,2.286ZM6.1,10.667a.762.762,0,1,1-.762.762A.764.764,0,0,1,6.1,10.667Zm3.048,0a.762.762,0,1,1-.762.762A.764.764,0,0,1,9.143,10.667Zm3.048,0a.762.762,0,1,1-.762.762A.764.764,0,0,1,12.19,10.667Z" transform="translate(-1.172 -0.762)" fill="#5b5b5b"/>
  </g>
</svg>
