<svg xmlns="http://www.w3.org/2000/svg" xmlns:xlink="http://www.w3.org/1999/xlink" width="16" height="16" viewBox="0 0 16 16">
  <defs>
    <clipPath id="clip-path">
      <rect id="Rectangle_18674" data-name="Rectangle 18674" width="16" height="16" transform="translate(917.083 321.083)" fill="#f5504c" stroke="#707070" stroke-width="1"/>
    </clipPath>
  </defs>
  <g id="Mask_Group_17" data-name="Mask Group 17" transform="translate(-917.083 -321.083)" clip-path="url(#clip-path)">
    <path id="icons8_marker" d="M9.889.5A5.4,5.4,0,0,0,4.5,5.889c0,4.753,4.927,10.422,5.136,10.662a.334.334,0,0,0,.253.116.347.347,0,0,0,.253-.116c.209-.243,5.136-6.01,5.136-10.662A5.4,5.4,0,0,0,9.889.5Zm0,3.7A2.021,2.021,0,1,1,7.868,6.225,2.021,2.021,0,0,1,9.889,4.2Z" transform="translate(915.194 320.5)" fill="#f5504c"/>
  </g>
</svg>
