<svg id="Group_8828" data-name="Group 8828" xmlns="http://www.w3.org/2000/svg" width="36.313" height="50.464" viewBox="0 0 36.313 50.464">
  <path id="Path_1" data-name="Path 1" d="M523.789,1062.006,505.182,1043.4a5.793,5.793,0,0,0-9.134,1.234h0a43.43,43.43,0,0,0,0,42.942h0a5.841,5.841,0,0,0,9.175,1.275l18.565-18.65A5.793,5.793,0,0,0,523.789,1062.006Zm-.769,6.606-17.735,19.438a4.526,4.526,0,0,1-7.162-.634,42.167,42.167,0,0,1-1.911-41.638,4.526,4.526,0,0,1,7.084-1.287l19.44,17.735a4.526,4.526,0,0,1,.293,6.385Z" transform="translate(-489.78 -1040.872)" fill="#ededf4"/>
  <path id="Path_2" data-name="Path 2" d="M521.933,1058.478l-19.24-19.24a5.994,5.994,0,0,0-9.445,1.273h0a44.915,44.915,0,0,0,0,44.408h0a5.993,5.993,0,0,0,9.445,1.275l19.24-19.242A5.99,5.99,0,0,0,521.933,1058.478Zm-.8,6.83-18.339,20.1a4.673,4.673,0,0,1-7.406-.657,43.6,43.6,0,0,1-1.968-43.056,4.675,4.675,0,0,1,7.316-1.332l20.1,18.339a4.675,4.675,0,0,1,.3,6.6Z" transform="translate(-487.377 -1037.484)" fill="#ededf4"/>
  <path id="Path_3" data-name="Path 3" d="M525.806,1102.353a2.815,2.815,0,0,0-.738-.911,3.565,3.565,0,0,0-.885-.525,5.317,5.317,0,0,0-1.722-.376,9.032,9.032,0,0,0-1.594.059c-.516.065-1,.171-1.5.281a9.015,9.015,0,0,0-1.48.463,7.515,7.515,0,0,0-1.377.73,6.69,6.69,0,0,0-2.105,2.257c-.057.1-.11.2-.163.3l.374-7.455-2.731.271,1.8,7.105-.472-.092c-.929-.185-1.856-.37-2.865-.512-.252-.035-.523-.059-.8-.075a7.783,7.783,0,0,0-.8,0,6.89,6.89,0,0,0-1.643.25,4.28,4.28,0,0,0-1.6.821,3.239,3.239,0,0,0-.64.726,2.91,2.91,0,0,0-.37.9,3.037,3.037,0,0,0,.146,1.783,3.674,3.674,0,0,0,.923,1.358,3.872,3.872,0,0,0,1.324.811,3.758,3.758,0,0,0,1.46.22,3.889,3.889,0,0,1-2.137-1.594,2.871,2.871,0,0,1-.427-1.124,1.828,1.828,0,0,1,.13-1.023,1.478,1.478,0,0,1,.624-.651,2.833,2.833,0,0,1,.984-.3,5.8,5.8,0,0,1,1.181-.012c.2.016.413.045.622.075a5.944,5.944,0,0,1,.6.128c.858.2,1.771.476,2.7.713.277.077.559.147.842.218a8.928,8.928,0,0,0-.071,1.446,8.061,8.061,0,0,0,.154,1.432,10.246,10.246,0,0,1,.431-2.755c.486.116.984.224,1.474.325s.968.181,1.462.252,1,.132,1.505.167a11.94,11.94,0,0,0,3.192-.163,7.659,7.659,0,0,0,1.635-.541,5.868,5.868,0,0,0,1.507-1,4.284,4.284,0,0,0,1.145-1.643,3.15,3.15,0,0,0,.2-1.143A2.783,2.783,0,0,0,525.806,1102.353Zm-2.119,1.181a.788.788,0,0,1-.085.244,1.94,1.94,0,0,1-.533.624,4.443,4.443,0,0,1-1.968.824,10.2,10.2,0,0,1-2.481.071,26.811,26.811,0,0,1-2.676-.321c-.242-.039-.486-.083-.73-.128a5.8,5.8,0,0,1,1.968-1.623,7.322,7.322,0,0,1,2.469-.712,9.326,9.326,0,0,1,1.322-.053,7.271,7.271,0,0,1,1.249.12,3.516,3.516,0,0,1,1.019.344.871.871,0,0,1,.435.447.4.4,0,0,1,.01.173Z" transform="translate(-501.063 -1085.434)" fill="#ededf4"/>
  <path id="Path_4" data-name="Path 4" d="M533.914,1162.382l-.455.787-.228.393-.112.2a.27.27,0,0,0-.031.037.316.316,0,0,0-.031.03.3.3,0,0,1-.3.035.221.221,0,0,1-.1-.09,1.161,1.161,0,0,1-.085-.23l-.567-1.726L527.458,1148l-2.558.984,5.822,13.323.726,1.665a1.9,1.9,0,0,0,.339.567,1.377,1.377,0,0,0,2.017,0c.039-.047.081-.094.114-.144s.061-.1.09-.155l.1-.208.2-.413.38-.826.76-1.655,3.036-6.605-3.644,6.3Z" transform="translate(-517.517 -1126.254)" fill="#ededf4"/>
  <path id="Path_5" data-name="Path 5" d="M534.276,1167.243l.38-.826.759-1.655,2.243-4.878-4.421,7.76a.429.429,0,0,1-.769-.051L526.7,1153.4a1.423,1.423,0,0,0-1.822-.787h0l5.822,13.323.726,1.665a1.9,1.9,0,0,0,.338.567,1.377,1.377,0,0,0,2.017,0c.039-.047.081-.094.114-.144s.061-.1.091-.156l.1-.209Z" transform="translate(-517.499 -1129.888)" fill="#ededf4"/>
  <path id="Path_6" data-name="Path 6" d="M529.036,1117.228a2.784,2.784,0,0,0-.3-1.2,2.815,2.815,0,0,0-.738-.911,3.555,3.555,0,0,0-.885-.526,5.318,5.318,0,0,0-1.722-.376,9.056,9.056,0,0,0-1.594.059c-.515.065-1,.171-1.5.281a9.02,9.02,0,0,0-1.48.462,7.529,7.529,0,0,0-1.377.73,6.763,6.763,0,0,0-1.789,1.751c.421.35,1.224-.291,1.224-.291,3.345-2.523,9.388-2.507,8.53.734-.891,3.365-8.347,2.755-13.345,1.33s-6.834.687-5.641,3.026a3.589,3.589,0,0,0,2.78,2.092,3.867,3.867,0,0,1-2.054-1.574,2.87,2.87,0,0,1-.427-1.123,1.827,1.827,0,0,1,.13-1.023,1.477,1.477,0,0,1,.624-.651,2.834,2.834,0,0,1,.984-.3,5.791,5.791,0,0,1,1.181-.012c.2.016.413.045.622.075a5.954,5.954,0,0,1,.6.128c.858.2,1.771.476,2.7.712.277.077.559.147.842.218a8.943,8.943,0,0,0-.071,1.446,8.1,8.1,0,0,0,.153,1.432,10.248,10.248,0,0,1,.431-2.755c.486.116.984.224,1.474.325s.968.181,1.462.252,1,.132,1.505.167a11.946,11.946,0,0,0,3.192-.163,7.668,7.668,0,0,0,1.635-.541,5.873,5.873,0,0,0,1.507-1,4.285,4.285,0,0,0,1.145-1.643A3.148,3.148,0,0,0,529.036,1117.228Z" transform="translate(-503.994 -1099.105)" fill="#ededf4"/>
  <path id="Path_7" data-name="Path 7" d="M435.613,67.195l.374-7.485-.927,7.375Z" transform="translate(-422.446 -47.964)" fill="#ededf4"/>
  <path id="Path_8" data-name="Path 8" d="M555.282,1123.6a5.8,5.8,0,0,1,1.968-1.623c.128-.063.256-.124.393-.179l-.59-1.271c-.165.092-.327.2-.484.3a6.687,6.687,0,0,0-2.105,2.257c-.057.1-.11.2-.163.3v.03h.024c.3.059.626.122.962.181h0Z" transform="translate(-541.132 -1104.19)" fill="#ededf4" opacity="0.5"/>
  <path id="Path_9" data-name="Path 9" d="M550.143,1148a8.631,8.631,0,0,0-.073,1.005l.358.033s.018-.087.045-.208l.018-.079c.016-.065.033-.134.051-.2v-.012c.012-.049.026-.1.039-.151s.039-.144.055-.2a.327.327,0,0,1,.016-.059Z" transform="translate(-537.734 -1126.254)" fill="#ededf4" opacity="0.5"/>
  <path id="Path_10" data-name="Path 10" d="M550.224,1127.442v.012l.092-1.844-1.011-.02-.085.014.451,1.771.549.108Z" transform="translate(-537.052 -1108.254)" fill="#ededf4" opacity="0.5"/>
</svg>
