<svg xmlns="http://www.w3.org/2000/svg" width="199.646" height="277.609" viewBox="0 0 199.646 277.609">
  <g id="Group_9498" data-name="Group 9498" transform="translate(-1163.515 -3591.196)" opacity="0.05">
    <path id="Path_6853" data-name="Path 6853" d="M680.361,1157.133l-105.78-105.78a32.933,32.933,0,0,0-51.927,7.014h0a246.909,246.909,0,0,0,0,244.134h0c10.75,18.906,36.781,22.63,52.162,7.249l105.545-106.026A32.932,32.932,0,0,0,680.361,1157.133Zm-4.374,37.553L575.164,1305.2a25.729,25.729,0,0,1-40.719-3.6,239.729,239.729,0,0,1-10.862-236.719,25.73,25.73,0,0,1,40.271-7.316l110.523,100.825a25.728,25.728,0,0,1,1.667,36.3Z" transform="translate(673.145 2549.494)" fill="#363537"/>
    <path id="Path_6855" data-name="Path 6855" d="M626.017,1126.589a16,16,0,0,0-4.195-5.18,20.247,20.247,0,0,0-5.034-2.987,30.213,30.213,0,0,0-9.788-2.136,51.413,51.413,0,0,0-9.061.335c-2.931.369-5.694.973-8.547,1.6a51.3,51.3,0,0,0-8.412,2.629A42.8,42.8,0,0,0,573.15,1125a38.04,38.04,0,0,0-11.97,12.831c-.324.57-.626,1.118-.928,1.734l2.125-42.385-15.527,1.543,10.258,40.394-2.685-.525c-5.28-1.052-10.549-2.1-16.287-2.909-1.432-.2-2.976-.335-4.575-.424a43.618,43.618,0,0,0-4.542,0,39.1,39.1,0,0,0-9.341,1.42,24.322,24.322,0,0,0-9.117,4.665,18.39,18.39,0,0,0-3.636,4.128,16.559,16.559,0,0,0-2.1,5.09,17.269,17.269,0,0,0,.828,10.135,20.884,20.884,0,0,0,5.246,7.719,22.023,22.023,0,0,0,7.529,4.609,21.375,21.375,0,0,0,8.3,1.252,22.108,22.108,0,0,1-12.148-9.061,16.326,16.326,0,0,1-2.427-6.387,10.388,10.388,0,0,1,.738-5.817,8.4,8.4,0,0,1,3.546-3.7,16.112,16.112,0,0,1,5.593-1.723,33.013,33.013,0,0,1,6.712-.067c1.119.089,2.349.258,3.535.426a33.639,33.639,0,0,1,3.422.727c4.878,1.119,10.068,2.708,15.337,4.05,1.577.436,3.177.839,4.788,1.242a50.785,50.785,0,0,0-.4,8.222,45.939,45.939,0,0,0,.872,8.144,58.271,58.271,0,0,1,2.45-15.662c2.763.66,5.593,1.276,8.379,1.846s5.5,1.03,8.312,1.431,5.66.75,8.557.951a67.9,67.9,0,0,0,18.145-.928,43.541,43.541,0,0,0,9.3-3.076A33.365,33.365,0,0,0,620,1149.23a24.346,24.346,0,0,0,6.511-9.341,17.894,17.894,0,0,0,1.119-6.5A15.825,15.825,0,0,0,626.017,1126.589ZM613.97,1133.3a4.479,4.479,0,0,1-.481,1.387,11.034,11.034,0,0,1-3.032,3.546,25.252,25.252,0,0,1-11.186,4.687,57.971,57.971,0,0,1-14.106.4,152.671,152.671,0,0,1-15.214-1.823c-1.376-.224-2.763-.47-4.15-.728a33.014,33.014,0,0,1,11.187-9.229,41.635,41.635,0,0,1,14.039-4.05,52.917,52.917,0,0,1,7.517-.3,41.374,41.374,0,0,1,7.1.682,20,20,0,0,1,5.795,1.957,4.955,4.955,0,0,1,2.472,2.54,2.245,2.245,0,0,1,.056.985Z" transform="translate(674.812 2556.076)" fill="#363537"/>
    <path id="Path_6857" data-name="Path 6857" d="M578.3,1236.205l2.159-4.7,4.318-9.408,12.753-27.731-25.136,44.119a2.439,2.439,0,0,1-4.374-.291l-32.776-80.666a8.088,8.088,0,0,0-10.359-4.475h0l33.1,75.743,4.127,9.464a10.821,10.821,0,0,0,1.924,3.222,7.831,7.831,0,0,0,11.466,0c.224-.269.458-.537.649-.817s.347-.581.514-.884l.548-1.186Z" transform="translate(677.24 2562.644)" fill="#363537"/>
    <path id="Path_6859" data-name="Path 6859" d="M438.2,102.263l2.125-42.553-5.269,41.927Z" transform="translate(796.816 3593.546)" fill="#363537"/>
    <path id="Path_6860" data-name="Path 6860" d="M559.882,1138a33.02,33.02,0,0,1,11.186-9.23c.727-.357,1.454-.7,2.237-1.017l-3.356-7.227c-.94.526-1.857,1.119-2.752,1.7a38.036,38.036,0,0,0-11.97,12.831c-.324.57-.626,1.119-.928,1.734v.168h.134c1.723.336,3.557.693,5.47,1.029h0Z" transform="translate(680.73 2558.846)" fill="#363537" opacity="0.5"/>
    <path id="Path_6861" data-name="Path 6861" d="M550.484,1148a49.139,49.139,0,0,0-.414,5.716l2.036.19s.1-.492.257-1.185l.1-.448c.09-.369.19-.761.291-1.119v-.066c.067-.28.145-.571.224-.861s.224-.818.314-1.12a1.854,1.854,0,0,1,.089-.336Z" transform="translate(680.229 2562.106)" fill="#363537" opacity="0.5"/>
    <path id="Path_6862" data-name="Path 6862" d="M554.925,1136.117v.067l.526-10.482-5.75-.112-.481.078,2.562,10.068,3.121.615Z" transform="translate(680.128 2559.448)" fill="#363537" opacity="0.5"/>
  </g>
</svg>
