<svg xmlns="http://www.w3.org/2000/svg" width="24" height="24" viewBox="0 0 24 24">
  <g id="message-text" transform="translate(-236 -252)">
    <path id="Vector" d="M15,0H5A4.991,4.991,0,0,0,0,4.98v6.98a4.991,4.991,0,0,0,5,4.98H6.5a1.149,1.149,0,0,1,.8.4l1.5,1.99a1.421,1.421,0,0,0,2.4,0l1.5-1.99a1.014,1.014,0,0,1,.8-.4H15a4.991,4.991,0,0,0,5-4.98V4.98A4.991,4.991,0,0,0,15,0ZM11,11.75H5a.75.75,0,0,1,0-1.5h6a.75.75,0,0,1,0,1.5Zm4-5H5a.75.75,0,0,1,0-1.5H15a.75.75,0,0,1,0,1.5Z" transform="translate(238 254)" fill="#292d32"/>
    <path id="Vector-2" data-name="Vector" d="M0,0H24V24H0Z" transform="translate(236 252)" fill="none" opacity="0"/>
    <path id="Vector-3" data-name="Vector" d="M0,0H24V24H0Z" transform="translate(260 276) rotate(180)" fill="none" opacity="0"/>
  </g>
</svg>
