<svg xmlns="http://www.w3.org/2000/svg" xmlns:xlink="http://www.w3.org/1999/xlink" width="16" height="16" viewBox="0 0 16 16">
  <defs>
    <clipPath id="clip-path">
      <rect id="Rectangle_18753" data-name="Rectangle 18753" width="16" height="16" fill="#fff" stroke="#707070" stroke-width="1"/>
    </clipPath>
  </defs>
  <g id="Mask_Group_29" data-name="Mask Group 29" clip-path="url(#clip-path)">
    <path id="icons8_cell_phone" d="M11.478,1.739H5.913V.348A.348.348,0,0,0,5.565,0H4.522a.348.348,0,0,0-.348.348V13.913A2.176,2.176,0,0,0,6.261,16h5.217a1.741,1.741,0,0,0,1.739-1.739V3.478A1.741,1.741,0,0,0,11.478,1.739Zm-4.87,12.87a.7.7,0,1,1,.7-.7A.7.7,0,0,1,6.609,14.609Zm0-2.087a.7.7,0,1,1,.7-.7A.7.7,0,0,1,6.609,12.522Zm0-2.087a.7.7,0,1,1,.7-.7A.7.7,0,0,1,6.609,10.435ZM8.7,14.609a.7.7,0,1,1,.7-.7A.7.7,0,0,1,8.7,14.609Zm0-2.087a.7.7,0,1,1,.7-.7A.7.7,0,0,1,8.7,12.522Zm0-2.087a.7.7,0,1,1,.7-.7A.7.7,0,0,1,8.7,10.435Zm2.087,4.174a.7.7,0,1,1,.7-.7A.7.7,0,0,1,10.783,14.609Zm0-2.087a.7.7,0,1,1,.7-.7A.7.7,0,0,1,10.783,12.522Zm0-2.087a.7.7,0,1,1,.7-.7A.7.7,0,0,1,10.783,10.435Zm.7-3.13a.7.7,0,0,1-.7.7H6.609a.7.7,0,0,1-.7-.7V4.522a.7.7,0,0,1,.7-.7h4.174a.7.7,0,0,1,.7.7Z" transform="translate(-0.725)" fill="#5b5b5b"/>
  </g>
</svg>
