<svg xmlns="http://www.w3.org/2000/svg" xmlns:xlink="http://www.w3.org/1999/xlink" width="24" height="24" viewBox="0 0 24 24">
  <defs>
    <clipPath id="clip-path">
      <rect id="Rectangle_18709" data-name="Rectangle 18709" width="24" height="24" transform="translate(156 134)" fill="#363537"/>
    </clipPath>
  </defs>
  <g id="Mask_Group_50" data-name="Mask Group 50" transform="translate(-156 -134)" clip-path="url(#clip-path)">
    <g id="room-service" transform="translate(155.441 133.442)">
      <g id="Group_9068" data-name="Group 9068">
        <g id="XMLID_1_">
          <path id="Path_6475" data-name="Path 6475" d="M20.8,21.511a1.337,1.337,0,0,1,.056.368,1.278,1.278,0,0,1-2.556,0,1.267,1.267,0,0,1,.05-.363,2.212,2.212,0,0,0,1.228.536A2.205,2.205,0,0,0,20.8,21.511Z" fill="#363537"/>
          <path id="Path_6476" data-name="Path 6476" d="M10.309,21.511a1.324,1.324,0,0,1,.05.363,1.278,1.278,0,0,1-2.556,0,1.267,1.267,0,0,1,.05-.363,2.212,2.212,0,0,0,1.228.536A2.2,2.2,0,0,0,10.309,21.511Z" fill="#363537"/>
          <path id="Path_6477" data-name="Path 6477" d="M5.18,2.3,6.43,6.971H5.487L4.437,3.042a.226.226,0,0,0-.218-.167h-3.2a.458.458,0,0,1,0-.915H4.733a.456.456,0,0,1,.447.324c-.006.006,0,.011,0,.017Z" fill="#363537"/>
          <path id="Path_6478" data-name="Path 6478" d="M10.08,3.466v.943a.876.876,0,1,1-1.753,0V3.466Z" fill="#363537"/>
          <path id="Path_6479" data-name="Path 6479" d="M13.663,3.466v.943a.876.876,0,1,1-1.753,0V3.466Z" fill="#363537"/>
          <path id="Path_6480" data-name="Path 6480" d="M21.572,5.888H16.086a2.749,2.749,0,0,1,5.487,0Z" fill="#363537"/>
          <path id="Path_6481" data-name="Path 6481" d="M15.505,6.34h6.647v.625H15.505Z" fill="#363537"/>
          <path id="Path_6482" data-name="Path 6482" d="M23.135,7.423,24.558,21.55a3.691,3.691,0,0,1-.921-.564,3.045,3.045,0,0,0-1.284-.687c-.251-.675-1.362-3.8-.927-5.565a.227.227,0,0,0-.441-.106c-.441,1.814.564,4.789.893,5.7a3.653,3.653,0,0,0-1.122.647l-.011.011a2.377,2.377,0,0,1-1.172.608,2.379,2.379,0,0,1-1.172-.608c-.006,0-.006-.006-.011-.006a3.159,3.159,0,0,0-1.228-.675c-.073-.8-.313-4.007.547-5.57a.226.226,0,1,0-.4-.218c-.915,1.674-.687,4.906-.6,5.8a3.331,3.331,0,0,0-1.2.675,2.377,2.377,0,0,1-1.172.608A2.379,2.379,0,0,1,13.167,21a3.331,3.331,0,0,0-1.2-.675c.084-.893.313-4.125-.6-5.8a.229.229,0,0,0-.313-.089.224.224,0,0,0-.089.307c.86,1.563.62,4.778.547,5.57a3.2,3.2,0,0,0-1.228.675c-.006,0-.006.006-.011.006A2.377,2.377,0,0,1,9.1,21.6a2.4,2.4,0,0,1-1.172-.608c-.006,0-.006-.006-.011-.006a4.291,4.291,0,0,0-.971-.6c.324-.871,1.356-3.9.91-5.738a.227.227,0,1,0-.441.106c.424,1.741-.647,4.811-.921,5.537H6.48a2.624,2.624,0,0,0-1.446.7,3.666,3.666,0,0,1-.915.564L5.52,7.423Z" fill="#363537"/>
          <path id="Path_6483" data-name="Path 6483" d="M13.016,5.727V6.971h-.458V5.727a1.514,1.514,0,0,0,.229.022c.078-.006.156-.011.229-.022Z" fill="#363537"/>
          <path id="Path_6484" data-name="Path 6484" d="M9.427,5.727V6.971H8.969V5.727a1.514,1.514,0,0,0,.229.022c.084-.006.156-.011.229-.022Z" fill="#363537"/>
        </g>
      </g>
    </g>
  </g>
</svg>
