<svg xmlns="http://www.w3.org/2000/svg" xmlns:xlink="http://www.w3.org/1999/xlink" width="24" height="24" viewBox="0 0 24 24">
  <defs>
    <clipPath id="clip-path">
      <rect id="Rectangle_18848" data-name="Rectangle 18848" width="24" height="24" transform="translate(45 632)" fill="#363537" stroke="#707070" stroke-width="1"/>
    </clipPath>
  </defs>
  <g id="Mask_Group_175" data-name="Mask Group 175" transform="translate(-45 -632)" clip-path="url(#clip-path)">
    <g id="rating_2_" data-name="rating (2)" transform="translate(45 632)">
      <circle id="Ellipse_95" data-name="Ellipse 95" cx="2.813" cy="2.813" r="2.813" transform="translate(11.273)" fill="#363537"/>
      <path id="Path_6845" data-name="Path 6845" d="M19.055,7.734v2.813a.7.7,0,0,1-.7.7H9.867a.7.7,0,0,1-.7-.7V7.734A3.507,3.507,0,0,1,10.477,5a4.217,4.217,0,0,0,7.232-.025A3.508,3.508,0,0,1,19.055,7.734Z" fill="#363537"/>
      <path id="Path_6846" data-name="Path 6846" d="M22.359,12.7H7.781V6.422a.7.7,0,0,0-1.307-.36L2.521,12.7h-.88A1.642,1.642,0,0,0,0,14.344v8.016A1.642,1.642,0,0,0,1.641,24H22.359A1.642,1.642,0,0,0,24,22.359V14.344A1.642,1.642,0,0,0,22.359,12.7ZM8.085,18.362l-.705.762L7.5,20.155a.7.7,0,0,1-.993.722l-.942-.436-.942.436a.7.7,0,0,1-.993-.722l.123-1.031-.705-.762a.7.7,0,0,1,.379-1.168l1.018-.2.506-.906a.7.7,0,0,1,1.228,0l.506.906,1.018.2A.7.7,0,0,1,8.085,18.362Zm6.476,0-.705.762.123,1.031a.7.7,0,0,1-.993.722l-.942-.436-.942.436a.7.7,0,0,1-.993-.722l.123-1.031-.705-.762A.7.7,0,0,1,9.9,17.195l1.018-.2.506-.906a.7.7,0,0,1,1.228,0l.506.906,1.018.2a.7.7,0,0,1,.379,1.168Zm6.391,0-.705.762.123,1.031a.7.7,0,0,1-.993.722l-.942-.436-.942.436a.7.7,0,0,1-.993-.722l.123-1.031-.705-.762a.7.7,0,0,1,.379-1.168l1.018-.2.506-.906a.7.7,0,0,1,1.228,0l.506.906,1.018.2a.7.7,0,0,1,.379,1.168Z" fill="#363537"/>
    </g>
  </g>
</svg>
