<svg xmlns="http://www.w3.org/2000/svg" width="15.333" height="16.006" viewBox="0 0 15.333 16.006">
  <path id="_Path_" d="M21.083,13.714a1.4,1.4,0,0,1-1.37,1.429H15.059a.265.265,0,0,0-.193.083.289.289,0,0,0-.079.2v4.863a1.371,1.371,0,1,1-2.74,0V15.427a.289.289,0,0,0-.079-.2.265.265,0,0,0-.193-.083H7.12a1.431,1.431,0,0,1,0-2.859h4.654a.265.265,0,0,0,.193-.083.289.289,0,0,0,.079-.2V7.143a1.371,1.371,0,1,1,2.74,0V12a.289.289,0,0,0,.077.206.265.265,0,0,0,.2.085h4.654a1.4,1.4,0,0,1,1.37,1.423Z" transform="translate(-5.75 -5.714)" fill="#f5504c"/>
</svg>
