<svg xmlns="http://www.w3.org/2000/svg" xmlns:xlink="http://www.w3.org/1999/xlink" width="24" height="24" viewBox="0 0 24 24">
  <defs>
    <clipPath id="clip-path">
      <rect id="Rectangle_196" data-name="Rectangle 196" width="24" height="24" transform="translate(24 957)" fill="#363537" stroke="#707070" stroke-width="1"/>
    </clipPath>
  </defs>
  <g id="Mask_Group_36" data-name="Mask Group 36" transform="translate(-24 -957)" clip-path="url(#clip-path)">
    <path id="icons8_note" d="M21.714.19H4.571A2.471,2.471,0,0,0,2.1,2.667V7.924A43.7,43.7,0,0,1,.8,18.457l-.114.476a2.085,2.085,0,0,0,2.038,2.59H17.276a2.872,2.872,0,0,0,2.781-2.171l.152-.629a44.839,44.839,0,0,0,1.333-10.8V1.333h.19a1.325,1.325,0,0,1,1.333,1.333V21.714a1.325,1.325,0,0,1-1.333,1.333H4.571a.571.571,0,0,0,0,1.143H21.714a2.471,2.471,0,0,0,2.476-2.476V2.667A2.471,2.471,0,0,0,21.714.19Zm-6.8,12.99a.571.571,0,0,1-.762.267.79.79,0,0,0-.229-.076c-.21-.019-.5.248-.781.533a2.437,2.437,0,0,1-1.41.838h-.152c-.838,0-1.41-.724-1.924-1.352-.248-.324-.629-.781-.857-.838a6.537,6.537,0,0,0-.648.838c-.171.229-.362.5-.571.762a.57.57,0,0,1-.9-.7c.19-.248.381-.514.552-.743.59-.8.9-1.238,1.371-1.3.857-.114,1.429.61,1.943,1.257.343.419.781.952,1.067.933.21-.019.476-.286.743-.533a2.2,2.2,0,0,1,1.7-.838,1.593,1.593,0,0,1,.629.19A.557.557,0,0,1,14.914,13.181Zm1.467,1.486a.571.571,0,1,1,.571-.571A.561.561,0,0,1,16.381,14.667Z" transform="translate(23.593 956.81)" fill="#363537"/>
  </g>
</svg>
