<svg xmlns="http://www.w3.org/2000/svg" xmlns:xlink="http://www.w3.org/1999/xlink" width="24" height="24" viewBox="0 0 24 24">
  <defs>
    <clipPath id="clip-path">
      <rect id="Rectangle_158" data-name="Rectangle 158" width="24" height="24" transform="translate(385 236.5)" fill="#363537"/>
    </clipPath>
  </defs>
  <g id="Mask_Group_31" data-name="Mask Group 31" transform="translate(-385 -236.5)" clip-path="url(#clip-path)">
    <g id="menu_1_" data-name="menu (1)" transform="translate(384.806 236.5)">
      <g id="Group_8978" data-name="Group 8978">
        <path id="Path_258" data-name="Path 258" d="M18.372,2.7V.243a.243.243,0,0,0-.3-.235L7.3,2.7l6.258.422Z" fill="#e69644"/>
        <path id="Path_259" data-name="Path 259" d="M3.806,3.573,12.668,4l5.7-.422V2.7H7.3Z" fill="#d48339"/>
        <path id="Path_260" data-name="Path 260" d="M20.194,23.127V3.816a.243.243,0,0,0-.243-.243H3.806V23.127l7.976.422Z" fill="#f1cd65"/>
        <path id="Path_261" data-name="Path 261" d="M4.049,24h15.9a.243.243,0,0,0,.243-.243v-.631H3.806v.631A.243.243,0,0,0,4.049,24Z" fill="#ebb34f"/>
      </g>
      <g id="Group_8980" data-name="Group 8980">
        <path id="Path_262" data-name="Path 262" d="M9.611,11.879a1.562,1.562,0,0,0,.773-.192L11.6,12.9,9.161,15.345a.365.365,0,0,0,.516.516l2.441-2.441,2.441,2.441a.365.365,0,0,0,.516-.516L12.633,12.9,13.638,11.9a1.38,1.38,0,0,0,.707.189h.067c1.277-.055,2.647-1.643,2.8-1.824a.365.365,0,0,0-.558-.469c-.357.423-1.461,1.53-2.273,1.565a.749.749,0,0,1-.187-.015l2.027-2.027a.365.365,0,1,0-.516-.516l-2.027,2.027a.742.742,0,0,1-.015-.187c.035-.812,1.141-1.916,1.565-2.273a.365.365,0,1,0-.469-.558c-.181.152-1.769,1.522-1.824,2.8a1.39,1.39,0,0,0,.188.775l-1.005,1.005L10.9,11.171a1.677,1.677,0,0,0,.164-1.106,2.863,2.863,0,0,0-.678-1.389,2.209,2.209,0,0,0-1.565-.82A1.686,1.686,0,0,0,7.07,9.608a2.209,2.209,0,0,0,.82,1.565,2.863,2.863,0,0,0,1.389.678,2.073,2.073,0,0,0,.333.028Z" fill="#315771"/>
        <g id="Group_8979" data-name="Group 8979">
          <path id="Path_263" data-name="Path 263" d="M15.7,18.675a.365.365,0,1,0,0-.729H8.3a.365.365,0,1,0,0,.729Z" fill="#c23756"/>
          <path id="Path_264" data-name="Path 264" d="M9.611,19.88a.365.365,0,1,0,0,.729h4.778a.365.365,0,1,0,0-.729Z" fill="#c23756"/>
        </g>
      </g>
    </g>
  </g>
</svg>
