<svg xmlns="http://www.w3.org/2000/svg" xmlns:xlink="http://www.w3.org/1999/xlink" width="24" height="24" viewBox="0 0 24 24">
  <defs>
    <clipPath id="clip-path">
      <rect id="Rectangle_18687" data-name="Rectangle 18687" width="24" height="24" transform="translate(506 898)" fill="#fff" stroke="#707070" stroke-width="1"/>
    </clipPath>
  </defs>
  <g id="Mask_Group_21" data-name="Mask Group 21" transform="translate(-506 -898)" clip-path="url(#clip-path)">
    <g id="icons8_cash_in_hand" transform="translate(505.368 897.368)">
      <path id="Path_6410" data-name="Path 6410" d="M11.368,24.316a1.581,1.581,0,0,1-1.579-1.579V17.368h3.158v5.368A1.581,1.581,0,0,1,11.368,24.316Z" fill="#e8d47b"/>
      <path id="Path_6411" data-name="Path 6411" d="M12.632,17.684v5.053a1.263,1.263,0,1,1-2.526,0V17.684h2.526m.632-.632H9.474v5.684a1.895,1.895,0,1,0,3.789,0V17.053Z" fill="#ba9b48"/>
      <path id="Path_6412" data-name="Path 6412" d="M14.526,23.684a1.581,1.581,0,0,1-1.579-1.579V16.737h3.158v5.368A1.581,1.581,0,0,1,14.526,23.684Z" fill="#e8d47b"/>
      <path id="Path_6413" data-name="Path 6413" d="M15.789,17.053v5.053a1.263,1.263,0,0,1-2.526,0V17.053h2.526m.632-.632H12.632v5.684a1.895,1.895,0,1,0,3.789,0V16.421ZM7.895,14.526a2.384,2.384,0,0,0-2.211,2.526,2.384,2.384,0,0,0,2.211,2.526,2.384,2.384,0,0,0,2.211-2.526,2.384,2.384,0,0,0-2.211-2.526Z" fill="#ba9b48"/>
      <path id="Path_6414" data-name="Path 6414" d="M17.684,22.421a1.581,1.581,0,0,1-1.579-1.579V13.579h3.158v7.263A1.581,1.581,0,0,1,17.684,22.421Z" fill="#e8d47b"/>
      <path id="Path_6415" data-name="Path 6415" d="M18.947,13.895v6.947a1.263,1.263,0,0,1-2.526,0V13.895h2.526m.632-.632H15.789v7.579a1.895,1.895,0,1,0,3.789,0V13.263Z" fill="#ba9b48"/>
      <path id="Path_6416" data-name="Path 6416" d="M7.355,6.087H24.423v9.478H7.355Z" transform="translate(-1.337 19.367) rotate(-60.638)" fill="#bae0bd"/>
      <path id="Path_6417" data-name="Path 6417" d="M16.065,1.492l7.707,4.343L15.712,20.16,8.006,15.817,16.065,1.492m-.24-.861L7.146,16.057l8.807,4.964L24.632,5.6,15.825.632Z" fill="#5e9c76"/>
      <path id="Path_6418" data-name="Path 6418" d="M7.227,17.811,12.7,1.663,21.7,4.693,16.232,20.841Z" fill="#bae0bd"/>
      <path id="Path_6419" data-name="Path 6419" d="M12.9,2.063,21.3,4.891l-5.27,15.55L7.627,17.613,12.9,2.063m-.4-.8L6.825,18.009l9.6,3.231L22.105,4.494,12.5,1.263Z" fill="#5e9c76"/>
      <path id="Path_6420" data-name="Path 6420" d="M14.466,14.725a3.5,3.5,0,0,1-3.127-1.937,3.436,3.436,0,0,1-.176-2.646,3.491,3.491,0,0,1,6.429-.426,3.436,3.436,0,0,1,.176,2.646A3.482,3.482,0,0,1,14.466,14.725Z" fill="#fff"/>
      <path id="Path_6421" data-name="Path 6421" d="M14.466,8.095h0a3.18,3.18,0,0,1,2.843,1.762,3.125,3.125,0,0,1,.16,2.4,3.175,3.175,0,0,1-5.847.387,3.125,3.125,0,0,1-.16-2.4,3.166,3.166,0,0,1,3-2.149m0-.632a3.8,3.8,0,1,0,1.216.2,3.8,3.8,0,0,0-1.216-.2Z" fill="#5e9c76"/>
      <g id="Group_8893" data-name="Group 8893">
        <path id="Path_6422" data-name="Path 6422" d="M16.492,6.218a.951.951,0,0,1-.305-.051.947.947,0,0,1,.3-1.844.957.957,0,0,1,.854.529.936.936,0,0,1,.048.721A.95.95,0,0,1,16.492,6.218Z" fill="#fff"/>
        <path id="Path_6423" data-name="Path 6423" d="M16.492,4.64a.645.645,0,0,1,.2.033.63.63,0,0,1,.366.319.623.623,0,0,1,.032.479.635.635,0,0,1-.6.43.645.645,0,0,1-.2-.033.63.63,0,0,1-.366-.319.623.623,0,0,1-.032-.479.636.636,0,0,1,.6-.43m0-.632a1.266,1.266,0,1,0,.405.067,1.268,1.268,0,0,0-.405-.067Z" fill="#5e9c76"/>
      </g>
      <g id="Group_8894" data-name="Group 8894">
        <path id="Path_6424" data-name="Path 6424" d="M.947,24.316V14.692l5.834-4.05a.972.972,0,0,1,.609-.22H9.7L8.553,15.169l-1.43,1.7a.622.622,0,0,0-.092.669.625.625,0,0,0,.871.295l5.062-3.318a1.579,1.579,0,1,1,1.851,2.559l-7.2,6.6a2.841,2.841,0,0,1-1.8.644Z" fill="#ffeea3"/>
        <path id="Path_6425" data-name="Path 6425" d="M9.3,10.737,8.264,15.023,6.882,16.664a.937.937,0,0,0-.137,1.006.942.942,0,0,0,1.305.441l.026-.014.025-.016,5.058-3.318a1.263,1.263,0,0,1,1.472,2.054l-.031.022-.028.026L7.421,23.419A2.532,2.532,0,0,1,5.809,24H1.263V14.857l5.7-3.956.018-.012L7,10.876a.63.63,0,0,1,.395-.139H9.3m.8-.632H7.391a1.264,1.264,0,0,0-.789.277L.632,14.526V24.632H5.809a3.158,3.158,0,0,0,2.015-.726L15,17.329a1.895,1.895,0,1,0-2.208-3.08l-5.037,3.3a.315.315,0,0,1-.39-.483l1.478-1.755,1.263-5.211Z" fill="#ba9b48"/>
      </g>
      <g id="Group_8895" data-name="Group 8895">
        <path id="Path_6426" data-name="Path 6426" d="M1.895,14.418l-1.263.877V24H1.895Z" fill="#ffeea3"/>
      </g>
      <path id="Path_6427" data-name="Path 6427" d="M9.505,10.105,7.355,17l.009.066a.316.316,0,0,0,.39.483L9.48,16.421l1.143-6.316Z" fill="#bae0bd"/>
      <path id="Path_6428" data-name="Path 6428" d="M9.505,10.105l-2.213,7.1,0,0a.318.318,0,0,0,.46.342l.116-.076,2.3-7.372Z" fill="#5e9c76"/>
    </g>
  </g>
</svg>
