<svg id="payment" xmlns="http://www.w3.org/2000/svg" width="24" height="23.995" viewBox="0 0 24 23.995">
  <path id="Path_6904" data-name="Path 6904" d="M3.705,20.03c.014,0,7.1,2.887,8.342,3.38.113.042.169.07.183.07a6.324,6.324,0,0,0,5.33-.155L24,20.761V13.153l-4.022-.591a2.781,2.781,0,0,0-2.025.183L12.117,15.67a.306.306,0,0,0-.07.042,1.412,1.412,0,0,0,0,2.433,1.4,1.4,0,0,0,1.336.028L16,16.88a2.1,2.1,0,0,1,2.573.577.684.684,0,0,1-.112.984.7.7,0,0,1-.984-.113.733.733,0,0,0-.872-.2l-2.587,1.308a2.924,2.924,0,0,1-1.266.3,4.393,4.393,0,0,1-.7-.155c-1.983-.52-7.315-2.152-7.315-2.152a1.414,1.414,0,0,0-1.744.773,1.391,1.391,0,0,0,.717,1.828Zm0,0" transform="translate(-2.859)" fill="#ffcebf"/>
  <path id="Path_6905" data-name="Path 6905" d="M15.658,20.03c.014,0,7.1,2.887,8.342,3.38V19.58c-1.983-.52-7.315-2.151-7.315-2.151a1.414,1.414,0,0,0-1.744.773,1.391,1.391,0,0,0,.717,1.828Zm0,0" transform="translate(-14.812)" fill="#ffbfab"/>
  <path id="Path_6906" data-name="Path 6906" d="M14.812,0A6.352,6.352,0,1,1,8.484,6.375,6.378,6.378,0,0,1,14.812,0Zm0,0" transform="translate(-5.625)" fill="#ffe470"/>
  <path id="Path_6907" data-name="Path 6907" d="M21.141,12.7V0a6.352,6.352,0,0,0,0,12.7Zm0,0" transform="translate(-11.953)" fill="#ffd400"/>
  <path id="Path_6908" data-name="Path 6908" d="M14.812,1.406A4.945,4.945,0,1,1,9.891,6.375,4.968,4.968,0,0,1,14.812,1.406Zm0,0" transform="translate(-5.625)" fill="#fdbf00"/>
  <path id="Path_6909" data-name="Path 6909" d="M14.812,6.375A4.927,4.927,0,0,0,19.734,11.3V1.406A4.968,4.968,0,0,0,14.812,6.375Zm0,0" transform="translate(-10.547)" fill="#ff9f00"/>
  <path id="Path_6910" data-name="Path 6910" d="M12.7,7.781a2.117,2.117,0,0,0,1.406,1.983v.83a.7.7,0,1,0,1.406,0v-.83a2.117,2.117,0,0,0,1.406-1.983.7.7,0,0,0-1.406,0,.7.7,0,1,1-.7-.7,2.106,2.106,0,0,0,.7-4.092V2.109a.7.7,0,1,0-1.406,0v.877A2.116,2.116,0,0,0,12.7,4.969a.7.7,0,0,0,1.406,0,.7.7,0,1,1,.7.7A2.106,2.106,0,0,0,12.7,7.781Zm0,0" transform="translate(-5.625)" fill="#ffe470"/>
  <path id="Path_6911" data-name="Path 6911" d="M.7,22.594H3.562a.7.7,0,0,0,.7-.7V12a.7.7,0,0,0-.7-.7H2.109A2.109,2.109,0,0,0,0,13.406v8.484A.7.7,0,0,0,.7,22.594Zm0,0" transform="translate(19.734)" fill="#ff4b00"/>
  <g id="Group_9463" data-name="Group 9463" transform="translate(7.078 1.406)">
    <path id="Path_6912" data-name="Path 6912" d="M14.812,7.781a2.117,2.117,0,0,0,1.406,1.983v.83a.7.7,0,0,0,.7.7V8.484a.7.7,0,1,1,0-1.406V5.672A2.106,2.106,0,0,0,14.812,7.781Zm0,0" transform="translate(-14.812 -1.406)" fill="#ffd400"/>
    <path id="Path_6913" data-name="Path 6913" d="M16.922,4.266V1.406a.7.7,0,0,0-.7.7v.877a2.116,2.116,0,0,0-1.406,1.983.7.7,0,1,0,1.406,0A.7.7,0,0,1,16.922,4.266Zm0,0" transform="translate(-14.812 -1.406)" fill="#ffd400"/>
  </g>
</svg>
