<svg xmlns="http://www.w3.org/2000/svg" xmlns:xlink="http://www.w3.org/1999/xlink" width="24" height="24" viewBox="0 0 24 24">
  <defs>
    <clipPath id="clip-path">
      <rect id="Rectangle_18817" data-name="Rectangle 18817" width="24" height="24" fill="#f2f5f7" stroke="#707070" stroke-width="1"/>
    </clipPath>
  </defs>
  <g id="Mask_Group_179" data-name="Mask Group 179" clip-path="url(#clip-path)">
    <path id="download" d="M20.921,8.828H15.162a2.336,2.336,0,0,1-2.334-2.334V.736a1.467,1.467,0,0,1,.2-.736H5.6A1.6,1.6,0,0,0,4,1.6V21.945a1.6,1.6,0,0,0,1.6,1.6H20.059a1.6,1.6,0,0,0,1.6-1.6V8.632a1.467,1.467,0,0,1-.736.2ZM10.1,13.458a.735.735,0,0,1,1.04,0l.951.951V9.932a.736.736,0,1,1,1.471,0v4.477l.951-.951a.735.735,0,0,1,1.04,1.04l-2.207,2.207a.74.74,0,0,1-.591.212c-.368-.049-.252-.015-2.656-2.42A.735.735,0,0,1,10.1,13.458Zm6.406,6.406H9.15a.736.736,0,1,1,0-1.471h7.357a.736.736,0,0,1,0,1.471ZM15.162,7.357h5.759L14.3.736V6.495A.863.863,0,0,0,15.162,7.357Z" transform="translate(-0.828 0.229)" fill="#f2f5f7"/>
  </g>
</svg>
