<svg xmlns="http://www.w3.org/2000/svg" xmlns:xlink="http://www.w3.org/1999/xlink" width="20" height="20" viewBox="0 0 20 20">
  <defs>
    <clipPath id="clip-path">
      <rect id="Rectangle_18672" data-name="Rectangle 18672" width="20" height="20" transform="translate(354 382)" fill="#31bc3a"/>
    </clipPath>
  </defs>
  <g id="Mask_Group_16" data-name="Mask Group 16" transform="translate(-354 -382)" clip-path="url(#clip-path)">
    <path id="icons8_phone_1" d="M17.741,21.363h-.021C14.3,21.251,10.3,17.94,7.544,15.18S1.472,8.418,1.365,5.018C1.326,3.824,4.254,1.7,4.284,1.681a1.409,1.409,0,0,1,1.949.138c.234.325,2.454,3.688,2.7,4.069a1.6,1.6,0,0,1-.1,1.577c-.172.328-.744,1.333-1.012,1.8a23.885,23.885,0,0,0,2.635,3,23.927,23.927,0,0,0,3,2.637c.469-.268,1.474-.84,1.8-1.012a1.608,1.608,0,0,1,1.568-.1c.408.25,3.762,2.48,4.071,2.7a1.166,1.166,0,0,1,.46.859,1.682,1.682,0,0,1-.318,1.1C21.02,18.47,18.923,21.363,17.741,21.363Z" transform="translate(352.636 380.637)" fill="#31bc3a"/>
  </g>
</svg>
