<svg xmlns="http://www.w3.org/2000/svg" width="17.095" height="13.676" viewBox="0 0 17.095 13.676">
  <g id="photo-camera" transform="translate(0 -47.104)">
    <g id="Group_448" data-name="Group 448" transform="translate(0 47.104)">
      <g id="Group_447" data-name="Group 447" transform="translate(0 0)">
        <path id="Path_3993" data-name="Path 3993" d="M15.051,49.482H13.267L12.282,48a2.047,2.047,0,0,0-1.691-.892H6.5A2.047,2.047,0,0,0,4.813,48l-.985,1.487H2.044A2.038,2.038,0,0,0,0,51.526v7.21A2.038,2.038,0,0,0,2.044,60.78H15.051a2.038,2.038,0,0,0,2.044-2.044v-7.21A2.038,2.038,0,0,0,15.051,49.482Zm-6.5,9.625a4.6,4.6,0,1,1,4.608-4.59A4.607,4.607,0,0,1,8.547,59.107Zm6.243-6.745h-.818a.6.6,0,0,1,0-1.208h.743a.6.6,0,0,1,.632.576A.588.588,0,0,1,14.791,52.362Z" transform="translate(0 -47.104)" fill="#f5504c"/>
      </g>
    </g>
    <g id="Group_450" data-name="Group 450" transform="translate(5.983 51.954)">
      <g id="Group_449" data-name="Group 449">
        <path id="Path_3994" data-name="Path 3994" d="M167.428,180.736a2.555,2.555,0,1,0,2.564,2.546A2.569,2.569,0,0,0,167.428,180.736Z" transform="translate(-164.864 -180.736)" fill="#f5504c"/>
      </g>
    </g>
  </g>
</svg>
