<svg xmlns="http://www.w3.org/2000/svg" xmlns:xlink="http://www.w3.org/1999/xlink" width="16" height="16" viewBox="0 0 16 16">
  <defs>
    <clipPath id="clip-path">
      <rect id="Rectangle_18865" data-name="Rectangle 18865" width="16" height="16" fill="#43494b" stroke="#707070" stroke-width="1"/>
    </clipPath>
  </defs>
  <g id="Mask_Group_181" data-name="Mask Group 181" clip-path="url(#clip-path)">
    <g id="cafe" transform="translate(0.007 0)">
      <path id="Path_6884" data-name="Path 6884" d="M.007,4.466,1.293,1.9a1.011,1.011,0,0,1,.9-.558H13.8a1.011,1.011,0,0,1,.9.558l1.286,2.562-1.118.481H1.125Z" transform="translate(-0.007 0)" fill="#fa6931"/>
      <path id="Path_6885" data-name="Path 6885" d="M13.959,1.9a1.011,1.011,0,0,1,.9-.558h1.13a1.011,1.011,0,0,0-.9.558L13.8,4.466h-1.13Z" transform="translate(-12.673 0)" fill="#fc5327"/>
      <path id="Path_6886" data-name="Path 6886" d="M0,10H13.739V0H0Z" transform="translate(1.332 5.183)" fill="#eedfda"/>
      <path id="Path_6887" data-name="Path 6887" d="M14.661,5.183H13.537v10h1.124Z" transform="translate(-12.205 0)" fill="#ded0cb"/>
      <path id="Path_6888" data-name="Path 6888" d="M13.538,15.186H10.244V7.751a.187.187,0,0,1,.186-.187h2.921a.187.187,0,0,1,.186.187v7.434Z" transform="translate(-7.789 0)" fill="#557981"/>
      <path id="Path_6889" data-name="Path 6889" d="M9.165,15.186H1.951V7.751a.187.187,0,0,1,.186-.187H8.979a.187.187,0,0,1,.186.187Z" transform="translate(4.877 0)" fill="#97e4f9"/>
      <path id="Path_6890" data-name="Path 6890" d="M9.165,15.186H1.951V7.751a.187.187,0,0,1,.186-.187H8.979a.187.187,0,0,1,.186.187Z" transform="translate(4.877 0)" fill="#97e4f9"/>
      <path id="Path_6891" data-name="Path 6891" d="M8,7.565H9.165a.187.187,0,0,0-.187.187v7.434H7.813V7.751A.186.186,0,0,1,8,7.565Z" transform="translate(-0.986 0)" fill="#62d8f9"/>
      <path id="Path_6892" data-name="Path 6892" d="M14.661,6.508a1.332,1.332,0,0,1-1.332-1.332v-.71h2.664v.71A1.332,1.332,0,0,1,14.661,6.508Z" transform="translate(-13.329 0)" fill="#fc5327"/>
      <path id="Path_6893" data-name="Path 6893" d="M12,6.508a1.332,1.332,0,0,1-1.332-1.332v-.71h2.664v.71A1.332,1.332,0,0,1,12,6.508Z" transform="translate(-8 0)" fill="#ed4322"/>
      <path id="Path_6894" data-name="Path 6894" d="M9.332,6.508A1.332,1.332,0,0,1,8,5.176v-.71h2.664v.71A1.332,1.332,0,0,1,9.332,6.508Z" transform="translate(-2.671 0)" fill="#fc5327"/>
      <path id="Path_6895" data-name="Path 6895" d="M6.668,6.508A1.332,1.332,0,0,1,5.336,5.176v-.71H8v.71A1.332,1.332,0,0,1,6.668,6.508Z" transform="translate(2.658 0)" fill="#ed4322"/>
      <path id="Path_6896" data-name="Path 6896" d="M4,6.508A1.332,1.332,0,0,1,2.671,5.176v-.71H5.336v.71A1.332,1.332,0,0,1,4,6.508Z" transform="translate(7.986 0)" fill="#fc5327"/>
      <path id="Path_6897" data-name="Path 6897" d="M1.339,6.508A1.332,1.332,0,0,1,.007,5.176v-.71H2.671v.71A1.332,1.332,0,0,1,1.339,6.508Z" transform="translate(13.315 0)" fill="#ed4322"/>
      <path id="Path_6898" data-name="Path 6898" d="M15.569,16H.431a.424.424,0,0,1-.424-.424V14.8a.424.424,0,0,1,.424-.424H15.569a.424.424,0,0,1,.424.424v.78A.424.424,0,0,1,15.569,16Z" transform="translate(-0.007 0)" fill="#fa6931"/>
      <path id="Path_6899" data-name="Path 6899" d="M0,1.787H7.215V0H0Z" transform="translate(6.828 12.585)" fill="#e5ecf1"/>
      <path id="Path_6900" data-name="Path 6900" d="M9.165,12.585H8v1.787H9.165Z" transform="translate(-1.172 0)" fill="#c9e2e7"/>
      <path id="Path_6901" data-name="Path 6901" d="M7.054,9.245A.241.241,0,0,1,6.813,9V7.565H7.3V9A.241.241,0,0,1,7.054,9.245Z" transform="translate(1.885 0)" fill="#eedfda"/>
      <path id="Path_6902" data-name="Path 6902" d="M6.273,9.681l.553-.827a.274.274,0,0,1,.456,0l.553.827a.115.115,0,0,1-.1.179H6.369a.115.115,0,0,1-.1-.179Z" transform="translate(1.885 0)" fill="#fbd307"/>
      <path id="Path_6903" data-name="Path 6903" d="M4.062,9.245A.241.241,0,0,1,3.82,9V7.565H4.3V9A.241.241,0,0,1,4.062,9.245Z" transform="translate(7.869 0)" fill="#eedfda"/>
      <path id="Path_6904" data-name="Path 6904" d="M3.281,9.681l.553-.827a.274.274,0,0,1,.456,0l.553.827a.115.115,0,0,1-.1.179H3.376a.115.115,0,0,1-.1-.179Z" transform="translate(7.869 0)" fill="#fbd307"/>
      <path id="Path_6905" data-name="Path 6905" d="M11.289,11.577a.241.241,0,0,0,.241-.241v-.822a.241.241,0,0,0-.483,0v.822A.241.241,0,0,0,11.289,11.577Z" transform="translate(-6.585 0)" fill="#c9e2e7"/>
      <path id="Path_6906" data-name="Path 6906" d="M5.31,2.693h5.38A.514.514,0,0,0,11.2,2.18V.514A.514.514,0,0,0,10.69,0H5.31A.514.514,0,0,0,4.8.514V2.179A.514.514,0,0,0,5.31,2.693Z" transform="translate(-0.007 0)" fill="#fba615"/>
      <path id="Path_6907" data-name="Path 6907" d="M10.053,0H11.2a.514.514,0,0,0-.514.514v2.18h-.637A.514.514,0,0,1,9.54,2.18V.514A.514.514,0,0,1,10.053,0Z" transform="translate(-4.75 0)" fill="#fa9801"/>
      <path id="Path_6908" data-name="Path 6908" d="M15.226,4.466v.71a1.332,1.332,0,0,0,.767,1.206,1.332,1.332,0,0,1-1.9-1.206v-.71Z" transform="translate(-14.096 0)" fill="#ed4322"/>
    </g>
  </g>
</svg>
