<svg xmlns="http://www.w3.org/2000/svg" xmlns:xlink="http://www.w3.org/1999/xlink" width="16" height="16" viewBox="0 0 16 16">
  <defs>
    <clipPath id="clip-path">
      <rect id="Rectangle_18854" data-name="Rectangle 18854" width="16" height="16" transform="translate(28 203)" fill="#363537" stroke="#707070" stroke-width="1"/>
    </clipPath>
  </defs>
  <g id="Mask_Group_179" data-name="Mask Group 179" transform="translate(-28 -203)" clip-path="url(#clip-path)">
    <g id="layer1" transform="translate(27.468 -79.774)">
      <path id="path14798" d="M10.132,282.774a6.4,6.4,0,1,0,6.4,6.4,6.4,6.4,0,0,0-6.4-6.4Zm0,1.067A5.333,5.333,0,1,1,4.8,289.175,5.338,5.338,0,0,1,10.132,283.841Zm0,2.134a.8.8,0,0,0-.8.8.786.786,0,0,0,.077.336A2.939,2.939,0,0,0,7.437,288.5a3.72,3.72,0,0,0-.312.67h6.014a3.7,3.7,0,0,0-.311-.67,2.941,2.941,0,0,0-1.973-1.394.783.783,0,0,0,.078-.336.8.8,0,0,0-.8-.8Zm-3.466,3.732a.267.267,0,0,0-.266.268v.266a1.071,1.071,0,0,0,1.067,1.067H12.8a1.071,1.071,0,0,0,1.067-1.067v-.266a.267.267,0,0,0-.268-.268Zm-2.1,3.591-.431.431,1.444,1.444.431-.431A7,7,0,0,1,4.565,293.3Zm-1.208.518a.266.266,0,0,0-.188.078L1,296.067a1.586,1.586,0,0,0,2.244,2.243l2.172-2.173a.266.266,0,0,0,0-.377l-1.867-1.866a.266.266,0,0,0-.188-.078Z" fill="#363537"/>
    </g>
  </g>
</svg>
