<svg id="Searchwhite" xmlns="http://www.w3.org/2000/svg" width="19.699" height="19.699" viewBox="0 0 19.699 19.699">
  <g id="Group_36" data-name="Group 36">
    <path id="Path_3191" data-name="Path 3191" d="M2.338,13.641a7.993,7.993,0,0,1,11.3-11.3,7.838,7.838,0,0,1,1.2,9.647.336.336,0,0,0,.046.4l4.078,4.078a1.863,1.863,0,0,1,.285,2.667l-.124.124a1.862,1.862,0,0,1-2.666-.285l-4.07-4.07a.341.341,0,0,0-.409-.055A7.838,7.838,0,0,1,2.338,13.641Zm9.828-1.476a5.906,5.906,0,1,0-8.353,0A5.913,5.913,0,0,0,12.166,12.166Z" transform="translate(-0.001 0)" fill="#ededf4"/>
    <g id="Group_35" data-name="Group 35" transform="translate(5.105 3.199)">
      <path id="Path_3192" data-name="Path 3192" d="M120.3,54.725a.825.825,0,0,0,.759-1.147,5.2,5.2,0,0,0-6.807-2.759.825.825,0,1,0,.643,1.519,3.547,3.547,0,0,1,4.644,1.882A.825.825,0,0,0,120.3,54.725Z" transform="translate(-113.752 -50.409)" fill="#ededf4"/>
    </g>
  </g>
</svg>
