<svg xmlns="http://www.w3.org/2000/svg" width="24" height="24" viewBox="0 0 24 24">
  <g id="vuesax_bold_directbox-send" data-name="vuesax/bold/directbox-send" transform="translate(-300 -188)">
    <g id="directbox-send">
      <path id="Vector" d="M15.76.23A8.021,8.021,0,0,0,13.72,0a2.862,2.862,0,0,0-2.09.7.647.647,0,0,0-.09.08l-.95,1.01a2.131,2.131,0,0,1-3.04-.01L6.6.78A.647.647,0,0,0,6.51.7,2.862,2.862,0,0,0,4.42,0,8.021,8.021,0,0,0,2.38.23C0,.87,0,2.76,0,4.42v.93C0,7.86,0,10.7,5.35,10.7h7.44c3.55,0,5.35-1.8,5.35-5.35V4.42C18.14,2.76,18.14.87,15.76.23ZM11.4,7.1H6.74a.7.7,0,0,1,0-1.4H11.4a.7.7,0,0,1,0,1.4Z" transform="translate(302.93 199.3)" fill="#ededf4"/>
      <path id="Vector-2" data-name="Vector" d="M3.145,2.3l.65.65A.672.672,0,1,0,4.745,2L2.945.2a.855.855,0,0,0-.22-.15A.7.7,0,0,0,2.475,0a.8.8,0,0,0-.26.05.69.69,0,0,0-.2.13C2,.19,2.005.19,2,.19L.195,2a.672.672,0,0,0,.95.95l.65-.65V4h1.35Z" transform="translate(309.525 190)" fill="#ededf4"/>
      <path id="Vector-3" data-name="Vector" d="M14.42,4.12a.647.647,0,0,0-.13-.04h-.01a9.3,9.3,0,0,0-2.42-.28,4.264,4.264,0,0,0-2.93.95,2.588,2.588,0,0,0-.34.3L7.64,6.06a.615.615,0,0,1-.43.16.607.607,0,0,1-.43-.17L5.8,5.02a1.628,1.628,0,0,0-.25-.22,4.3,4.3,0,0,0-2.99-1,9.436,9.436,0,0,0-2.43.28A.647.647,0,0,0,0,4.12C.01,2.13.21,0,4.42,0H6.54V3.08a.67.67,0,1,0,1.34,0V0H10C14.21,0,14.41,2.13,14.42,4.12Z" transform="translate(304.79 194)" fill="#ededf4"/>
      <path id="Vector-4" data-name="Vector" d="M0,0H24V24H0Z" transform="translate(300 188)" fill="none" opacity="0"/>
      <path id="Vector-5" data-name="Vector" d="M0,0H24V24H0Z" transform="translate(324 212) rotate(180)" fill="none" opacity="0"/>
    </g>
  </g>
</svg>
