<svg xmlns="http://www.w3.org/2000/svg" xmlns:xlink="http://www.w3.org/1999/xlink" width="24" height="24" viewBox="0 0 24 24">
  <defs>
    <clipPath id="clip-path">
      <rect id="Rectangle_18868" data-name="Rectangle 18868" width="24" height="24" transform="translate(223 213.25)" fill="#363537" stroke="#707070" stroke-width="1"/>
    </clipPath>
  </defs>
  <g id="Mask_Group_189" data-name="Mask Group 189" transform="translate(-223 -213.25)" clip-path="url(#clip-path)">
    <g id="Layer_2" data-name="Layer 2" transform="translate(222.2 212.444)">
      <path id="Path_7035" data-name="Path 7035" d="M23.368,9.472A3.136,3.136,0,0,1,20.9,5.232a1.472,1.472,0,0,0-.44-1.656,11.8,11.8,0,0,0-3.52-2.04A1.48,1.48,0,0,0,15.264,2a3.128,3.128,0,0,1-4.928,0,1.48,1.48,0,0,0-1.672-.464,11.856,11.856,0,0,0-3.28,1.84,1.488,1.488,0,0,0-.464,1.7,3.12,3.12,0,0,1-2.6,4.288,1.48,1.48,0,0,0-1.3,1.192A11.312,11.312,0,0,0,.8,12.8a11.456,11.456,0,0,0,.152,1.88,1.48,1.48,0,0,0,1.3,1.24A3.12,3.12,0,0,1,4.8,20.328a1.456,1.456,0,0,0,.408,1.744A11.888,11.888,0,0,0,8.7,24.08a1.6,1.6,0,0,0,.5.088,1.472,1.472,0,0,0,1.2-.624A3.1,3.1,0,0,1,12.96,22.2a3.136,3.136,0,0,1,2.512,1.264,1.472,1.472,0,0,0,1.728.488,12,12,0,0,0,3.2-1.912,1.48,1.48,0,0,0,.432-1.688,3.12,3.12,0,0,1,2.5-4.312,1.48,1.48,0,0,0,1.256-1.216A11.6,11.6,0,0,0,24.8,12.8a11.487,11.487,0,0,0-.2-2.138,1.464,1.464,0,0,0-1.232-1.19ZM16.8,12.8a4,4,0,1,1-4-4,4,4,0,0,1,4,4Z" fill="#363537"/>
    </g>
  </g>
</svg>
