<svg xmlns="http://www.w3.org/2000/svg" xmlns:xlink="http://www.w3.org/1999/xlink" width="22.2" height="24.835" viewBox="0 0 22.2 24.835">
  <defs>
    <linearGradient id="linear-gradient" x1="0.919" y1="0.988" x2="-0.385" y2="0.32" gradientUnits="objectBoundingBox">
      <stop offset="0" stop-color="#00a0ff"/>
      <stop offset="0.007" stop-color="#00a1ff"/>
      <stop offset="0.26" stop-color="#00beff"/>
      <stop offset="0.512" stop-color="#00d2ff"/>
      <stop offset="0.76" stop-color="#00dfff"/>
      <stop offset="1" stop-color="#00e3ff"/>
    </linearGradient>
    <linearGradient id="linear-gradient-2" x1="1.082" y1="0.625" x2="-1.301" y2="0.625" gradientUnits="objectBoundingBox">
      <stop offset="0" stop-color="#ffe000"/>
      <stop offset="0.409" stop-color="#ffbd00"/>
      <stop offset="0.775" stop-color="orange"/>
      <stop offset="1" stop-color="#ff9c00"/>
    </linearGradient>
    <linearGradient id="linear-gradient-3" x1="0.864" y1="-0.096" x2="-0.497" y2="-1.865" gradientUnits="objectBoundingBox">
      <stop offset="0" stop-color="#ff3a44"/>
      <stop offset="1" stop-color="#c31162"/>
    </linearGradient>
    <linearGradient id="linear-gradient-4" x1="-0.185" y1="2.624" x2="0.423" y2="1.834" gradientUnits="objectBoundingBox">
      <stop offset="0" stop-color="#32a071"/>
      <stop offset="0.068" stop-color="#2da771"/>
      <stop offset="0.476" stop-color="#15cf74"/>
      <stop offset="0.801" stop-color="#06e775"/>
      <stop offset="1" stop-color="#00f076"/>
    </linearGradient>
  </defs>
  <g id="Group_9" data-name="Group 9" transform="translate(-9.6 -7.065)">
    <path id="Path_89" data-name="Path 89" d="M10,7.5a2.588,2.588,0,0,0-.4,1.4V30.2a2.588,2.588,0,0,0,.4,1.4l.1.1L22,19.8v-.2L10,7.5Z" fill="url(#linear-gradient)"/>
    <path id="Path_90" data-name="Path 90" d="M26,23.6l-4-4v-.2l4-4,.1.1,4.7,2.7c1.3.8,1.3,2,0,2.8L26,23.6Z" fill="url(#linear-gradient-2)"/>
    <path id="Path_91" data-name="Path 91" d="M26.1,23.6,22,19.5l-12,12c.4.5,1.2.5,2,.1l14.1-8" fill="url(#linear-gradient-3)"/>
    <path id="Path_92" data-name="Path 92" d="M26.1,15.4,12,7.4a1.624,1.624,0,0,0-2,.1l12,12Z" fill="url(#linear-gradient-4)"/>
    <g id="Group_8" data-name="Group 8">
      <path id="Path_93" data-name="Path 93" d="M26,23.5,12,31.4c-.8.4-1.5.4-1.9,0h0l-.1.1h0l.1.1h0c.4.4,1.1.4,1.9,0l14-8.1Z" opacity="0.2"/>
      <path id="Path_94" data-name="Path 94" d="M10,31.4A1.955,1.955,0,0,1,9.6,30v.1a2.588,2.588,0,0,0,.4,1.4v-.1Z" opacity="0.12"/>
    </g>
    <path id="Path_95" data-name="Path 95" d="M30.8,20.8,26,23.5l.1.1,4.7-2.7a1.662,1.662,0,0,0,1-1.4h0C31.8,20,31.4,20.4,30.8,20.8Z" opacity="0.12"/>
    <path id="Path_96" data-name="Path 96" d="M12,7.6,30.8,18.3a1.618,1.618,0,0,1,1,1.2h0a1.662,1.662,0,0,0-1-1.4L12,7.4c-1.3-.8-2.4-.1-2.4,1.4V9C9.6,7.5,10.7,6.8,12,7.6Z" fill="#fff" opacity="0.25"/>
  </g>
</svg>
