<svg xmlns="http://www.w3.org/2000/svg" xmlns:xlink="http://www.w3.org/1999/xlink" width="16" height="16" viewBox="0 0 16 16">
  <defs>
    <clipPath id="clip-path">
      <rect id="Rectangle_18203" data-name="Rectangle 18203" width="16" height="16" transform="translate(637 1071)" fill="#6eeb83" stroke="#707070" stroke-width="1"/>
    </clipPath>
  </defs>
  <g id="Mask_Group_12" data-name="Mask Group 12" transform="translate(-637 -1071)" clip-path="url(#clip-path)">
    <path id="icons8_restaurant_table_1" d="M2.957,2.435A1.217,1.217,0,1,0,4.174,3.652,1.219,1.219,0,0,0,2.957,2.435Zm11.478,0a1.217,1.217,0,1,0,1.217,1.217A1.219,1.219,0,0,0,14.435,2.435ZM2.957,5.217A1.219,1.219,0,0,0,1.739,6.435l.005,3.579A1.223,1.223,0,0,0,2.957,11.13H3.989L4.25,9.391H4.174V6.416A1.252,1.252,0,0,0,2.957,5.217Zm11.478,0a1.252,1.252,0,0,0-1.216,1.2V9.391h-.076L13.4,11.13h1.033a1.223,1.223,0,0,0,1.212-1.117l.005-3.579A1.219,1.219,0,0,0,14.435,5.217Zm-13.4.342A.349.349,0,0,0,.7,5.913v4.973a1.37,1.37,0,0,0,.677,1.1l-.326,2.937a.347.347,0,1,0,.69.076l.315-2.822H4.535l-.357,2.383a.356.356,0,0,0,.043.227c.071.122.391.52,1.524.52a2.283,2.283,0,0,0,1.211-.268V12.522a.348.348,0,1,1,.7,0v2.539A1.982,1.982,0,0,0,8.7,15.3a1.982,1.982,0,0,0,1.043-.243V13.217a.348.348,0,1,1,.7,0v1.806a2.538,2.538,0,0,0,1.24.281,1.974,1.974,0,0,0,1.446-.457.343.343,0,0,0,.092-.291l-.357-2.383h2.485l.312,2.822a.349.349,0,1,0,.693-.076l-.326-2.937a1.371,1.371,0,0,0,.675-1.1V5.913a.348.348,0,1,0-.7,0v4.933a.668.668,0,0,1-.671.632H12.751L12.17,7.6a.348.348,0,0,0-.344-.3H5.565a.348.348,0,0,0-.344.3L4.64,11.478H2.062a.668.668,0,0,1-.671-.632V5.913a.348.348,0,0,0-.353-.353Z" transform="translate(636.305 1070.13)" fill="#6eeb83"/>
  </g>
</svg>
