<svg id="trash" xmlns="http://www.w3.org/2000/svg" width="16" height="16" viewBox="0 0 16 16">
  <path id="Vector" d="M12.549,2.653c-1.073-.107-2.147-.187-3.227-.247V2.4l-.147-.867C9.076.92,8.929,0,7.369,0H5.622c-1.553,0-1.7.88-1.807,1.527l-.14.853c-.62.04-1.24.08-1.86.14l-1.36.133a.5.5,0,1,0,.093.993l1.36-.133a53.152,53.152,0,0,1,10.547.14h.053a.5.5,0,0,0,.5-.453A.511.511,0,0,0,12.549,2.653Z" transform="translate(1.498 0.833)" fill="#707070"/>
  <path id="Vector-2" data-name="Vector" d="M9.868.26A.843.843,0,0,0,9.261,0H.835A.832.832,0,0,0,.228.26.859.859,0,0,0,0,.887l.413,6.84c.073,1.013.167,2.28,2.493,2.28h4.28c2.327,0,2.42-1.26,2.493-2.28L10.095.893A.864.864,0,0,0,9.868.26ZM6.155,6.667H3.935a.5.5,0,1,1,0-1h2.22a.5.5,0,0,1,0,1ZM6.715,4H3.381a.5.5,0,0,1,0-1H6.715a.5.5,0,0,1,0,1Z" transform="translate(2.952 5.167)" fill="#707070"/>
  <path id="Vector-3" data-name="Vector" d="M0,0H16V16H0Z" transform="translate(16 16) rotate(180)" fill="none" opacity="0"/>
</svg>
