<svg xmlns="http://www.w3.org/2000/svg" width="20.719" height="16.939" viewBox="0 0 20.719 16.939">
  <path id="logo" d="M-893.841,311.439a6.128,6.128,0,0,1-2.422.619,4.41,4.41,0,0,0,1.862-2.334,7.142,7.142,0,0,1-2.725,1.016h0a4.253,4.253,0,0,0-3.08-1.316,4.267,4.267,0,0,0-4.268,4.268,4.285,4.285,0,0,0,.12,1.009,11.878,11.878,0,0,1-8.922-4.488c-.992,2.2-.742,4.152,1.392,5.747a3.739,3.739,0,0,1-1.952-.524,4.243,4.243,0,0,0,3.434,4.211,4.234,4.234,0,0,1-1.9.109,4.258,4.258,0,0,0,3.994,2.928,8.566,8.566,0,0,1-6.253,1.825c7.636,4.774,18.62.037,18.62-10.816,0-.039,0-.074,0-.113h0A8.8,8.8,0,0,0-893.841,311.439Z" transform="translate(914.559 -309.424)" fill="#363537"/>
</svg>
