<svg xmlns="http://www.w3.org/2000/svg" xmlns:xlink="http://www.w3.org/1999/xlink" width="24" height="24" viewBox="0 0 24 24">
  <defs>
    <clipPath id="clip-path">
      <rect id="Rectangle_18852" data-name="Rectangle 18852" width="24" height="24" transform="translate(258 1020)" fill="#f2f5f7"/>
    </clipPath>
  </defs>
  <g id="Mask_Group_178" data-name="Mask Group 178" transform="translate(-258 -1020)" clip-path="url(#clip-path)">
    <path id="categories_1_" data-name="categories (1)" d="M13.92,5.28V12A1.92,1.92,0,0,1,12,13.92H5.28A1.92,1.92,0,0,1,3.36,12V5.28A1.92,1.92,0,0,1,5.28,3.36H12A1.92,1.92,0,0,1,13.92,5.28ZM25.44,3.36H18.72A1.92,1.92,0,0,0,16.8,5.28V12a1.92,1.92,0,0,0,1.92,1.92h6.72A1.92,1.92,0,0,0,27.36,12V5.28A1.92,1.92,0,0,0,25.44,3.36ZM12,16.8H5.28a1.92,1.92,0,0,0-1.92,1.92v6.72a1.92,1.92,0,0,0,1.92,1.92H12a1.92,1.92,0,0,0,1.92-1.92V18.72A1.92,1.92,0,0,0,12,16.8Zm10.08,0a5.28,5.28,0,1,0,5.28,5.28,5.28,5.28,0,0,0-5.28-5.28Z" transform="translate(254.64 1016.64)" fill="#f2f5f7"/>
  </g>
</svg>
