<svg xmlns="http://www.w3.org/2000/svg" width="24" height="24" viewBox="0 0 24 24">
  <g id="user-tag" transform="translate(-556 -188)">
    <path id="Vector" d="M0,0H24V24H0Z" transform="translate(556 188)" fill="none" opacity="0"/>
    <path id="Vector-2" data-name="Vector" d="M15,0H3A2.983,2.983,0,0,0,0,2.97V13.88a2.983,2.983,0,0,0,3,2.97h.76a2.988,2.988,0,0,1,2.12.87l1.71,1.69a2.022,2.022,0,0,0,2.83,0l1.71-1.69a3,3,0,0,1,2.12-.87H15a2.983,2.983,0,0,0,3-2.97V2.97A2.983,2.983,0,0,0,15,0ZM9,3.75A2.33,2.33,0,1,1,6.67,6.08,2.326,2.326,0,0,1,9,3.75Zm2.68,9.31H6.32a1,1,0,0,1-.83-1.57A4.209,4.209,0,0,1,9,9.8a4.209,4.209,0,0,1,3.51,1.69A1.007,1.007,0,0,1,11.68,13.06Z" transform="translate(559 190)" fill="#292d32"/>
  </g>
</svg>
