<svg xmlns="http://www.w3.org/2000/svg" xmlns:xlink="http://www.w3.org/1999/xlink" width="16" height="16" viewBox="0 0 16 16">
  <defs>
    <clipPath id="clip-path">
      <rect id="Rectangle_18785" data-name="Rectangle 18785" width="16" height="16" transform="translate(799 365.415)" fill="#707070" stroke="#707070" stroke-width="1"/>
    </clipPath>
  </defs>
  <g id="Mask_Group_35" data-name="Mask Group 35" transform="translate(-799 -365.415)" clip-path="url(#clip-path)">
    <path id="id-card" d="M14.167,0H1.833A1.835,1.835,0,0,0,0,1.833v8.333A1.835,1.835,0,0,0,1.833,12H14.167A1.835,1.835,0,0,0,16,10.167V1.833A1.835,1.835,0,0,0,14.167,0ZM5,2.667A1.667,1.667,0,1,1,3.333,4.333,1.669,1.669,0,0,1,5,2.667ZM8,8.833a.5.5,0,0,1-.5.5h-5a.5.5,0,0,1-.5-.5V8.5A1.835,1.835,0,0,1,3.833,6.667H6.167A1.835,1.835,0,0,1,8,8.5Zm5.5.5H9.833a.5.5,0,0,1,0-1H13.5a.5.5,0,0,1,0,1Zm0-2.667H9.833a.5.5,0,0,1,0-1H13.5a.5.5,0,0,1,0,1ZM13.5,4H9.833a.5.5,0,0,1,0-1H13.5a.5.5,0,0,1,0,1Zm0,0" transform="translate(799 367.415)" fill="#707070"/>
  </g>
</svg>
