<svg xmlns="http://www.w3.org/2000/svg" xmlns:xlink="http://www.w3.org/1999/xlink" width="24" height="24" viewBox="0 0 24 24">
  <defs>
    <clipPath id="clip-path">
      <rect id="Rectangle_18691" data-name="Rectangle 18691" width="24" height="24" transform="translate(1185 508)" fill="#292d32" stroke="#707070" stroke-width="1"/>
    </clipPath>
  </defs>
  <g id="Mask_Group_23" data-name="Mask Group 23" transform="translate(-1185 -508)" clip-path="url(#clip-path)">
    <path id="icons8_visa_1" d="M3.059,3.692A3.064,3.064,0,0,0,0,6.752V14.73a3.064,3.064,0,0,0,3.059,3.059H17.3a3.064,3.064,0,0,0,3.059-3.059V6.752A3.064,3.064,0,0,0,17.3,3.692Zm9.447,3.891a4.246,4.246,0,0,1,1.346.269l-.22,1.2a2.194,2.194,0,0,0-1-.367c-.713,0-.954.251-.954.563,0,.612,1.982.7,1.982,2.08,0,1.144-1.419,1.933-2.447,1.933a3.292,3.292,0,0,1-1.566-.318l.245-1.126a2.918,2.918,0,0,0,1.371.318c.829,0,.955-.364.955-.514,0-.878-1.982-.642-1.982-2.349C10.23,8.327,11,7.584,12.506,7.584Zm-6.437.1H7.611L5.433,13.09H3.842L2.692,8.709a4.891,4.891,0,0,1,1.958,2.3c.031.2.122.538.122.538Zm2.1,0H9.643L8.762,13.09H7.318Zm7.807,0h1.493L18.6,13.09H17.278l-.147-.759H15.345l-.294.759H13.607ZM1.1,7.706H3.328a.884.884,0,0,1,.783.538L4.6,10.692C3.943,8.569,1.1,7.706,1.1,7.706ZM16.52,9.248,15.737,11.3h1.2Z" transform="translate(1186.819 509.259)" fill="#292d32"/>
  </g>
</svg>
