<svg xmlns="http://www.w3.org/2000/svg" width="21.172" height="14.867" viewBox="0 0 21.172 14.867">
  <path id="logo" d="M-805.814,317.478l-.041-.855a3.346,3.346,0,0,0-3.212-3.186l-4.873-.189q-2.384-.093-4.77-.016l-4.85.158a3.346,3.346,0,0,0-3.235,3.188l-.043.915q-.147,3.133,0,6.269l.043.915a3.346,3.346,0,0,0,3.235,3.188l5.066.164q2.168.07,4.337,0l5.066-.164a3.346,3.346,0,0,0,3.235-3.188l.042-.9Q-805.665,320.629-805.814,317.478Zm-12.646,6.228v-6.284l5.4,3.209Z" transform="translate(826.91 -313.197)" fill="#363537"/>
</svg>
